<?xml version="1.0" standalone="no"?>
<!DOCTYPE svg PUBLIC "-//W3C//DTD SVG 20010904//EN"
 "http://www.w3.org/TR/2001/REC-SVG-20010904/DTD/svg10.dtd">
<svg version="1.0" xmlns="http://www.w3.org/2000/svg"
 width="186.000000pt" height="186.000000pt" viewBox="0 0 186.000000 186.000000"
 preserveAspectRatio="xMidYMid meet">
<metadata>
Created by potrace 1.14, written by Peter Selinger 2001-2017
</metadata>
<g transform="translate(0.000000,186.000000) scale(0.100000,-0.100000)"
fill="#000000" stroke="none">
<path d="M115 1252 c-71 -39 -108 -98 -111 -179 -3 -70 16 -121 63 -165 46
-44 98 -60 202 -62 86 -2 94 0 101 18 15 41 -1 49 -101 50 -112 2 -155 22
-187 86 -37 76 -9 155 70 194 41 20 54 23 89 15 23 -5 51 -16 62 -24 18 -13
22 -12 39 7 10 12 18 23 18 26 0 6 -41 42 -49 43 -3 0 -15 3 -26 6 -58 17
-122 11 -170 -15z"/>
<path d="M449 1258 c-1 -13 -1 -76 -1 -140 0 -110 2 -121 27 -164 26 -45 109
-109 126 -98 5 3 9 1 9 -3 0 -5 30 -8 66 -8 71 1 74 -1 74 -37 0 -57 -6 -74
-40 -109 -64 -68 -151 -70 -216 -5 -30 30 -34 31 -58 19 -33 -17 -33 -25 5
-63 90 -90 212 -95 305 -13 49 43 67 88 70 173 4 109 7 106 -82 102 -89 -4
-155 11 -175 40 -8 11 -18 26 -24 32 -17 19 -19 37 -19 164 -1 67 -3 122 -6
123 -61 10 -60 10 -61 -13z"/>
<path d="M748 1273 c-3 -4 -4 -82 -4 -173 l1 -165 25 -1 c48 -3 48 -2 47 174
l-2 167 -32 3 c-17 2 -33 -1 -35 -5z"/>
<path d="M1035 1261 c-172 -77 -172 -314 0 -396 53 -25 235 -29 236 -5 0 8 2
23 4 33 2 12 -3 17 -18 18 -12 0 -59 2 -104 3 -61 2 -88 7 -101 19 -10 9 -24
17 -30 17 -6 0 -14 9 -17 20 -3 11 -11 20 -16 20 -6 0 -8 4 -4 9 3 5 2 12 -3
15 -16 10 -12 70 8 112 27 55 73 84 132 84 51 0 107 -31 123 -68 5 -12 13 -22
17 -22 4 0 5 -6 3 -13 -4 -9 -37 -11 -129 -10 -99 2 -126 0 -136 -12 -10 -12
-10 -15 1 -15 11 0 11 -2 1 -9 -10 -6 -10 -10 2 -20 14 -11 54 -13 247 -12
l87 1 4 30 c3 17 0 30 -5 30 -5 0 -7 6 -4 13 7 20 -22 77 -59 115 -59 60 -160
78 -239 43z"/>
<path d="M1700 800 c-8 -5 -10 -10 -5 -10 6 0 3 -5 -5 -10 -9 -6 -10 -10 -3
-10 11 0 43 26 43 36 0 7 -14 4 -30 -6z"/>
<path d="M1600 763 c0 -6 -8 -10 -18 -8 -29 5 -45 -10 -47 -44 -1 -16 2 -28 7
-25 4 3 8 1 8 -5 0 -5 -5 -13 -11 -17 -15 -9 9 -24 38 -24 15 0 21 -5 17 -14
-5 -14 -44 -30 -42 -17 2 18 -3 31 -12 31 -5 0 -10 -9 -10 -20 0 -11 1 -20 3
-20 1 0 17 -4 34 -9 18 -5 31 -6 30 -3 -1 4 2 8 7 9 10 1 26 24 26 36 0 4 -12
12 -26 18 -26 9 -26 10 -9 29 10 11 21 18 25 15 4 -2 7 2 7 10 0 8 -5 11 -10
8 -6 -4 -8 2 -5 14 3 12 2 27 -3 34 -6 9 -9 10 -9 2z m-3 -46 c-2 -12 -17 -27
-27 -27 -3 0 -11 9 -18 21 -8 12 -9 18 -3 15 5 -4 12 -2 16 3 8 13 35 2 32
-12z"/>
<path d="M973 740 c-9 -10 -18 -28 -20 -38 -3 -25 31 -61 54 -57 10 2 23 4 29
4 6 1 11 8 11 15 0 10 -5 12 -16 7 -23 -12 -62 5 -55 23 4 11 11 13 22 7 17
-8 62 2 62 15 0 10 -44 43 -58 44 -7 0 -20 -9 -29 -20z m57 -16 c0 -2 -12 -4
-27 -4 -21 0 -24 3 -14 9 13 8 41 5 41 -5z"/>
<path d="M1109 728 c-5 -45 0 -78 13 -78 5 0 8 7 4 15 -3 8 0 15 7 15 8 0 8 3
-2 9 -9 6 -10 11 -2 15 6 4 9 11 6 16 -9 14 26 20 40 6 10 -10 11 -16 2 -25
-8 -8 -8 -11 0 -11 6 0 9 -9 6 -21 -4 -15 -2 -20 8 -17 20 7 18 66 -3 88 -21
23 -44 26 -51 8 -4 -10 -6 -10 -6 0 -2 26 -19 10 -22 -20z"/>
<path d="M1279 749 c-7 -4 -14 -18 -16 -30 -2 -13 -5 -25 -8 -27 -2 -2 5 -14
16 -25 21 -23 79 -31 79 -10 0 16 -17 26 -22 12 -3 -9 -9 -9 -26 0 -12 6 -19
17 -17 24 6 14 55 16 55 2 0 -5 5 -2 11 8 18 31 -37 68 -72 46z m51 -25 c0 -2
-12 -4 -27 -4 -21 0 -24 3 -14 9 13 8 41 5 41 -5z"/>
<path d="M1449 749 c-7 -4 -18 -5 -25 -2 -10 4 -13 -7 -11 -43 3 -56 22 -71
23 -18 1 36 17 56 39 48 6 -3 12 1 12 9 0 15 -19 18 -38 6z"/>
<path d="M1766 744 c-3 -7 0 -16 6 -20 7 -5 8 -2 3 6 -6 10 -4 12 9 7 10 -4
23 -7 29 -7 7 -1 -4 -9 -23 -19 -22 -12 -35 -27 -36 -40 -1 -12 1 -21 5 -22
58 -5 83 -4 88 4 3 5 1 12 -5 16 -6 3 -9 18 -8 33 2 15 0 32 -4 39 -11 17 -58
20 -64 3z m48 -68 c-7 -19 -34 -15 -34 5 0 12 6 16 19 12 11 -3 17 -11 15 -17z"/>
<path d="M1675 708 c2 -24 4 -47 4 -52 1 -11 13 -1 13 11 0 4 5 14 11 22 9 12
9 13 -1 7 -9 -6 -11 0 -7 23 4 22 1 31 -9 31 -10 0 -13 -11 -11 -42z"/>
</g>
</svg>
