<?xml version="1.0" standalone="no"?>
<!DOCTYPE svg PUBLIC "-//W3C//DTD SVG 20010904//EN"
 "http://www.w3.org/TR/2001/REC-SVG-20010904/DTD/svg10.dtd">
<svg version="1.0" xmlns="http://www.w3.org/2000/svg"
 width="207.000000pt" height="207.000000pt" viewBox="0 0 207.000000 207.000000"
 preserveAspectRatio="xMidYMid meet">
<metadata>
Created by potrace 1.14, written by Peter Selinger 2001-2017
</metadata>
<g transform="translate(0.000000,207.000000) scale(0.100000,-0.100000)"
fill="#000000" stroke="none">
<path d="M1030 1598 c-13 -29 -59 -127 -102 -217 -43 -89 -78 -167 -78 -172 0
-14 -12 -11 -45 11 -173 118 -370 100 -531 -47 -80 -73 -144 -228 -138 -337 8
-146 90 -289 210 -366 59 -37 159 -71 221 -74 107 -6 289 95 453 251 25 24 48
43 51 43 4 0 26 -18 50 -41 183 -170 349 -262 457 -253 98 8 209 58 280 126
252 240 155 655 -178 759 -115 36 -206 23 -323 -48 -32 -19 -60 -34 -61 -32
-2 2 -30 54 -61 114 -32 61 -82 155 -112 209 -29 54 -53 105 -53 112 0 28 -16
12 -40 -38z m-363 -533 c96 -48 96 -35 -12 -260 -94 -195 -95 -197 -122 -190
-107 26 -186 127 -185 236 1 172 172 287 319 214z m990 0 c187 -93 175 -358
-19 -439 l-35 -15 -38 72 c-96 185 -139 264 -156 293 -18 29 -18 32 -1 47 77
69 164 84 249 42z"/>
</g>
</svg>
