<svg xmlns="http://www.w3.org/2000/svg" viewBox="0 0 500 500"><defs><style>.cls-1{fill:#fecd3b;}.cls-2{fill:#262f55;}</style></defs><g id="Capa_2" data-name="Capa 2"><g id="Capa_1-2" data-name="Capa 1"><rect class="cls-1" width="500" height="500"/><g id="Capa_2-2" data-name="Capa 2"><g id="Capa_1-2-2" data-name="Capa 1-2"><path class="cls-2" d="M238.46,305.83V235.55c0-3.66-.88-5.83-4.35-7.83-12.94-7.48-18.24-21.24-14.2-35.17a31.43,31.43,0,0,1,60.58.28c4,14.07-1.33,28-14.05,35.3-3.73,2.14-4.53,4.49-4.53,8.36q.18,68.63.08,137.25a50.77,50.77,0,0,1-.14,6.64c-.89,6.93-5.49,11.16-11.79,11.08s-10.74-4.38-11.56-11.36a44.82,44.82,0,0,1-.1-5.31Z"/><path class="cls-2" d="M109.39,200c1-31.87,10-61,30.77-85.88,7.46-8.94,13.89-11.13,20-6.26,6.36,5.09,6,11.78-1.32,20.74a110.2,110.2,0,0,0-25.72,75.67,109.53,109.53,0,0,0,24.07,65.78,73.67,73.67,0,0,1,5.52,7.4,11.42,11.42,0,0,1-2.65,15.37c-4.61,3.71-10.33,3.72-15-.93a105.75,105.75,0,0,1-11.79-14.24C117.11,254.36,110,228.17,109.39,200Z"/><path class="cls-2" d="M190.68,145c11.35.37,15.57,10.34,10.86,19-4.16,7.67-9.1,15.27-11.38,23.52-4.29,15.52-1.53,30.54,7.75,44a69.4,69.4,0,0,1,5.31,8.36c2.47,5,1.12,9.65-2.84,13.16a10.27,10.27,0,0,1-12.92,1,23.34,23.34,0,0,1-5.77-5.31c-22.09-27.88-22.13-69,.13-96.8C184.49,148.61,188.71,146.52,190.68,145Z"/><path class="cls-2" d="M391.08,200c-1-31.87-10-61-30.78-85.88-7.47-8.94-13.88-11.13-20-6.26-6.36,5.09-6,11.78,1.33,20.74a112.5,112.5,0,0,1,1.6,141.4,73.58,73.58,0,0,0-5.51,7.4,11.41,11.41,0,0,0,2.66,15.37c4.59,3.7,10.33,3.72,15-.93a104.72,104.72,0,0,0,11.75-14.24C383.35,254.36,390.43,228.17,391.08,200Z"/><path class="cls-2" d="M309.85,145c-11.35.37-15.57,10.34-10.87,19,4.17,7.67,9.11,15.27,11.39,23.52,4.29,15.52,1.53,30.54-7.75,44a69.4,69.4,0,0,0-5.31,8.36c-2.47,5-1.12,9.65,2.84,13.16a10.27,10.27,0,0,0,12.92,1,23.53,23.53,0,0,0,5.77-5.31c22.09-27.88,22.13-69-.13-96.8C316,148.61,311.75,146.52,309.85,145Z"/></g></g></g></g></svg>