<svg xmlns="http://www.w3.org/2000/svg" viewBox="0 0 500 500"><defs><style>.cls-1{fill:#fecd3b;}.cls-2{fill:#262f55;}</style></defs><g id="Capa_2" data-name="Capa 2"><g id="Capa_1-2" data-name="Capa 1"><rect class="cls-1" width="500" height="500"/><g id="Capa_2-2" data-name="Capa 2"><g id="Capa_1-2-2" data-name="Capa 1-2"><path class="cls-2" d="M138.81,243.34c-4.52,3.68-7.67,6.37-11,8.85-6.94,5.31-13.36,5.19-17.77,0-4.81-5.68-4-12.34,2.65-18Q177,179.67,241.49,125.3c7.14-6,11.47-5.56,19.91,1.54q54.69,46.35,109.29,92.73c5.74,4.88,11.56,9.64,17.18,14.61,6.53,5.81,7.34,12.44,2.46,18.07-4.38,5.05-10.29,5.09-17.18,0-3.48-2.58-6.83-5.31-11.49-9v88.81c0,27.67-16,43.63-43.81,43.65H182.44c-27.64,0-43.55-16-43.59-43.81C138.81,303.08,138.81,274.07,138.81,243.34ZM202.54,352.2V278.56c0-13.91,8-21.91,21.74-22q25.56-.12,51.09,0c14.6,0,22.4,7.86,22.42,22.57V352.2h20.93c13.72,0,19.18-5.52,19.19-19.36,0-34.51-.08-69,.12-103.48a12.37,12.37,0,0,0-5-10.62c-26-22-51.88-44.1-77.8-66.18-1.63-1.4-3.38-2.66-5.31-4.14-28.57,24.36-56.83,48.45-85,72.63a8.29,8.29,0,0,0-2.45,5.63q-.19,54.75,0,109.46c0,9.62,6.24,15.72,15.8,15.93C186,352.35,193.71,352.2,202.54,352.2Zm71.22-.21V280.7H226.57V352Z"/></g></g></g></g></svg>