<svg xmlns="http://www.w3.org/2000/svg" viewBox="0 0 500 500"><defs><style>.cls-1{fill:#262f55;}.cls-2{fill:#fecd3b;}</style></defs><g id="Capa_2" data-name="Capa 2"><g id="Capa_1-2" data-name="Capa 1"><g id="Capa_2-2" data-name="Capa 2"><g id="Capa_1-2-2" data-name="Capa 1-2"><path class="cls-1" d="M270.3,272.1v-25c.08-8.44,5.31-14.6,12.24-14.38s11.15,5.31,11.23,14.41c.07,8,0,15.93,0,24.61,2.65.12,5,.33,7.37.33H358c21.84.12,34.8,13.2,35,35.19.09,11.49.12,23,0,34.51-.23,20.28-13.49,33.83-33.64,33.86q-109.05.15-218.1,0c-19.53,0-32.86-13.05-33.44-32.66q-.59-19.56,0-39.14c.57-19.05,14.2-31.62,34.22-31.69,39.83-.13,79.75,0,119.63,0Zm-20,23.54H142.56c-9.08,0-11.35,2.36-11.39,11.38v30.53c0,12.35,1.81,14.19,14.08,14.19H317.08c13.89,0,27.76.11,41.65,0,8.08-.1,10.62-2.84,10.73-10.87.08-10.83,0-21.68,0-32.51s-1.85-12.67-12.76-12.68Q303.5,295.61,250.29,295.64Z"/><path class="cls-1" d="M282.35,121.13c31.86,1,61,10,85.88,30.77,8.94,7.46,11.14,13.89,6.26,20-5.09,6.36-11.77,6-20.74-1.32a112.66,112.66,0,0,0-141.42-1.65,73.67,73.67,0,0,1-7.4,5.52,11.4,11.4,0,0,1-15.36-2.65c-3.79-4.6-3.79-10.32.89-15A104.63,104.63,0,0,1,204.71,145C228,128.85,254.22,121.78,282.35,121.13Z"/><path class="cls-1" d="M337.41,202.42c-.37,11.35-10.34,15.57-19,10.85-7.66-4.15-15.25-9.09-23.51-11.37-15.52-4.29-30.54-1.53-44,7.75A67.44,67.44,0,0,1,242.5,215c-5,2.47-9.65,1.12-13.16-2.84a10.28,10.28,0,0,1-1-12.92,23.34,23.34,0,0,1,5.31-5.77c27.88-22.09,69-22.13,96.8.13C333.8,196.23,335.91,200.45,337.41,202.42Z"/><path class="cls-1" d="M170.73,323.44a11.34,11.34,0,0,1-11,11.62H159a11.49,11.49,0,1,1,11.76-11.62Z"/><path class="cls-1" d="M198.55,335a11.47,11.47,0,1,1,11.85-11.62A11.6,11.6,0,0,1,198.81,335Z"/></g><rect class="cls-2" width="500" height="500"/></g><g id="Capa_2-3" data-name="Capa 2"><g id="Capa_1-2-3" data-name="Capa 1-2"><g id="_0onaZ3.tif" data-name=" 0onaZ3.tif"><path class="cls-1" d="M251.08,296.34H391.81c13.41,0,17.26,3.92,17.07,17.47-.29,27.1-18.81,45.86-45.89,45.91q-112.69.16-225.4,0c-28.76-.05-48.67-22.66-45.73-51.29.85-8.12,5.31-11.94,14.46-12.05,16.53-.11,33.05,0,49.57,0ZM116.64,320.13c2.45,11.1,9.13,16,21.32,16H362.79a44.86,44.86,0,0,0,5.31-.16c8.48-1.06,15.12-7.84,15.49-15.93Z"/><path class="cls-1" d="M377.19,279.9h-23.5V169.83c0-8.4-.77-9.18-9-9.2H156.29c-8.6,0-9.21.65-9.21,9.67V279.58H123.55V168.77c0-21.12,10.72-31.74,31.87-31.74H345.14c21.52,0,32.05,10.62,32.06,32.19V279.9Z"/></g></g></g></g></g></svg>