<svg xmlns="http://www.w3.org/2000/svg" viewBox="0 0 500 500"><defs><style>.cls-1{fill:#fecd3b;}.cls-2{fill:#262f55;}</style></defs><g id="Capa_2" data-name="Capa 2"><g id="Capa_1-2" data-name="Capa 1"><rect class="cls-1" width="500" height="500"/><g id="Capa_2-2" data-name="Capa 2"><g id="Capa_1-2-2" data-name="Capa 1-2"><g id="pS90zF.tif"><path class="cls-2" d="M206.12,275.55c7.88-7.74,14.77-15.22,22.47-21.72,3.18-2.66,8.34-5,12.18-4.49,9.29,1.33,11.95,12,5.45,19.53-4.75,5.51-10,10.62-15.17,15.7-2.5,2.47-5.31,4.62-8.26,7.17,2.36,2.58,3.76,4.2,5.31,5.71q19.6,19.71,39.23,39.4c9.75,9.82,9.07,16.06-2.57,23.82-52.31,34.9-124.47,6.06-138.6-55.55-6-26.11-1.85-50.44,13.27-72.72,6.45-9.53,13.53-10.26,21.75-2.09C176.1,245.22,191,260.29,206.12,275.55Zm34.78,70.82L152.46,257.6c-11.59,23.47-5.1,56,15.69,75.67C188.18,352.29,220.93,357.86,240.9,346.37Z"/><path class="cls-2" d="M235.91,121.12c72.33,2.48,132.92,59.38,140,131.6.41,4.17.89,8.36,1,12.55.2,8.82-4,14.17-11.05,14.6-6.85.47-11.18-4.85-12.52-13.4-2.15-13.67-3.16-28-8-40.7-17.91-46.71-52.38-73.33-101.91-80-3.7-.5-7.45-.71-11.18-1-8.68-.7-13.88-5.44-13.52-12.33.35-7.1,5.74-11.26,14.45-11.26Z"/><path class="cls-2" d="M325.3,265.14c.29,8.65-3.79,14.16-10.89,14.75-6.86.55-11.8-4.65-12.53-13.28-3.55-41.35-28.81-66.79-69.72-70.15-8.61-.72-13.83-5.53-13.4-12.41.42-7.13,6-11.38,14.52-11.13A95,95,0,0,1,325.3,265.14Z"/></g></g></g></g></g></svg>