<svg xmlns="http://www.w3.org/2000/svg" viewBox="0 0 500 500"><defs><style>.cls-1{fill:#fecd3b;}.cls-2{fill:#262f55;}</style></defs><g id="Capa_2" data-name="Capa 2"><g id="Capa_1-2" data-name="Capa 1"><rect class="cls-1" width="500" height="500"/><g id="Capa_2-2" data-name="Capa 2"><g id="Capa_1-2-2" data-name="Capa 1-2"><g id="gJ8R1X.tif"><path class="cls-2" d="M262.08,312v39.59a47.72,47.72,0,0,0,4.92.53h29.87c10.92,0,16.69,4.21,16.53,11.95s-5.71,11.6-16.24,11.6H199.58c-8.07-.44-13.27-5.31-13.08-12.09s5.31-11.27,13.07-11.41c12.36-.22,24.73-.06,37.66-.06V312H110.73c-15.26,0-21.25-7.39-18.26-22.57q15-76,30.08-152c2.39-11.84,7.56-16.26,19.65-16.26H357.27c12.72,0,17.78,4.26,20.34,17q15.3,76.34,30.54,152.68c2.65,13.54-3.73,21.1-17.78,21.12H270.89ZM213,224.79C211,246,209,267,207.08,288h85.86c-2-21.4-4-42.33-6-63.25Zm171,63.35c-4.16-20.3-8.14-39.75-11.84-59.24-.79-4.11-3-4.59-6.48-4.57-16.58.14-33.19,0-49.73.1a50,50,0,0,0-5.32.59c2.2,21.37,4.32,42.18,6.46,63.12ZM128.81,224.69c-4.09,21.07-8.18,42.07-12.39,63.73,21.76,0,42.28.1,62.78-.23,1.48,0,3.88-3,4.17-4.92,1.24-8.29,1.9-16.67,2.66-25,1.07-11.09,2.08-22.19,3.16-33.6ZM285,200.45l-5.47-55.29H220.41L215,200.45Zm-93.58,0c1.83-18.71,3.61-36.83,5.43-55.41H144.74c-3.59,18.29-7.18,36.58-10.86,55.36Zm174.66,0c-2.66-13.71-5.1-26.68-7.74-39.63-3.29-16.08-3.36-16.06-19.92-16.06H303.05c1.89,19.09,3.69,37.24,5.51,55.69Z"/></g></g></g></g></g></svg>