<?xml version="1.0" standalone="no"?>
<!DOCTYPE svg PUBLIC "-//W3C//DTD SVG 20010904//EN"
 "http://www.w3.org/TR/2001/REC-SVG-20010904/DTD/svg10.dtd">
<svg version="1.0" xmlns="http://www.w3.org/2000/svg"
 width="608.000000pt" height="608.000000pt" viewBox="0 0 608.000000 608.000000"
 preserveAspectRatio="xMidYMid meet">
<metadata>
Created by potrace 1.14, written by Peter Selinger 2001-2017
</metadata>
<g transform="translate(0.000000,608.000000) scale(0.100000,-0.100000)"
fill="#000000" stroke="none">
<path d="M4948 5799 c-21 -5 -66 -20 -100 -35 -85 -36 -1647 -937 -1709 -986
-54 -42 -277 -315 -308 -377 -34 -66 -181 -543 -181 -586 0 -33 9 -54 42 -101
51 -72 65 -83 102 -84 15 0 157 31 315 69 157 38 457 111 666 161 209 51 408
103 443 116 119 44 162 74 522 358 251 199 339 287 395 395 37 73 315 903 315
942 0 46 -12 74 -39 88 -20 11 -342 52 -394 50 -18 -1 -49 -5 -69 -10z"/>
<path d="M2260 4284 c-183 -105 -317 -189 -335 -209 -77 -86 -123 -183 -180
-384 -30 -107 -55 -206 -55 -220 0 -36 31 -119 46 -125 7 -3 136 30 286 73
l273 77 51 50 c59 58 131 143 167 199 14 22 55 135 92 250 37 116 73 229 81
253 8 23 14 62 14 85 0 35 -7 49 -41 85 -28 29 -49 42 -67 42 -17 0 -145 -68
-332 -176z"/>
<path d="M1530 3862 c-153 -87 -155 -89 -192 -153 -51 -90 -122 -360 -113
-430 4 -27 11 -52 16 -55 5 -3 69 9 142 27 150 37 162 45 220 149 38 68 129
383 129 445 0 34 -26 105 -39 105 -5 0 -78 -40 -163 -88z"/>
<path d="M4110 3769 c-52 -11 -259 -53 -459 -94 -200 -42 -373 -77 -385 -79
-257 -47 -490 -100 -534 -122 -60 -31 -222 -197 -260 -268 -36 -67 -154 -541
-148 -593 3 -23 26 -84 50 -136 35 -73 52 -97 73 -106 36 -14 1160 -240 1234
-247 86 -9 159 16 397 135 235 119 299 166 340 254 35 75 282 881 282 920 0
71 -29 106 -175 216 -76 57 -152 109 -171 117 -54 23 -141 24 -244 3z"/>
<path d="M1130 3625 c-91 -51 -96 -55 -121 -112 -31 -68 -79 -266 -79 -324 0
-24 5 -42 14 -45 15 -6 154 33 174 49 28 22 71 128 107 265 30 114 35 149 28
179 -4 20 -13 38 -18 39 -6 2 -53 -21 -105 -51z"/>
<path d="M1961 3304 c-167 -35 -261 -60 -274 -71 -11 -10 -41 -50 -67 -89 -42
-64 -52 -90 -91 -248 -41 -168 -43 -178 -32 -241 19 -110 10 -105 260 -153
121 -23 234 -42 252 -42 28 0 46 12 108 72 41 40 82 86 92 103 28 45 154 483
154 535 0 45 -36 133 -71 173 -22 25 -47 22 -331 -39z"/>
<path d="M1380 3184 c-36 -8 -88 -19 -117 -25 -49 -10 -54 -14 -84 -65 -33
-59 -99 -291 -101 -359 -1 -22 2 -57 6 -77 7 -41 -2 -37 161 -64 l99 -17 34
39 c52 60 67 97 111 272 45 178 47 196 27 262 -15 53 -31 57 -136 34z"/>
<path d="M995 3101 c-76 -16 -80 -18 -102 -56 -32 -57 -84 -280 -77 -330 4
-22 7 -41 8 -42 0 -1 36 -8 79 -16 l78 -15 26 42 c32 50 92 280 93 352 0 79
-9 85 -105 65z"/>
<path d="M802 2621 c-19 -12 -41 -70 -66 -169 -30 -117 -34 -193 -10 -217 18
-18 130 -95 138 -95 17 0 58 101 80 200 28 124 33 217 14 242 -14 17 -141 49
-156 39z"/>
<path d="M1039 2527 c-32 -44 -38 -62 -73 -222 -20 -88 -23 -122 -17 -172 4
-35 9 -64 12 -66 48 -40 210 -147 222 -147 19 0 65 54 83 95 6 17 29 98 50
181 36 147 37 154 25 221 -6 37 -15 74 -19 80 -4 7 -63 25 -131 41 l-123 30
-29 -41z"/>
<path d="M1450 2403 c-57 -65 -62 -76 -104 -242 -45 -173 -47 -233 -10 -353 6
-19 416 -318 447 -326 23 -6 140 73 161 109 8 14 40 126 71 250 45 176 56 235
52 274 -7 65 -64 213 -87 225 -16 9 -457 110 -479 110 -5 0 -28 -21 -51 -47z"/>
<path d="M2341 2209 c-76 -46 -168 -130 -184 -166 -21 -49 -127 -471 -127
-507 0 -38 65 -259 87 -296 19 -32 1008 -805 1115 -872 82 -51 118 -54 310
-28 187 25 235 44 268 110 11 21 69 214 130 428 116 413 124 459 95 542 -18
52 -206 350 -254 403 -63 70 -71 73 -611 211 -162 42 -398 103 -525 136 -126
33 -239 60 -250 60 -11 0 -35 -9 -54 -21z"/>
</g>
</svg>
