<?xml version="1.0" standalone="no"?>
<!DOCTYPE svg PUBLIC "-//W3C//DTD SVG 20010904//EN"
 "http://www.w3.org/TR/2001/REC-SVG-20010904/DTD/svg10.dtd">
<svg version="1.0" xmlns="http://www.w3.org/2000/svg"
 width="120.000000pt" height="120.000000pt" viewBox="0 0 120.000000 120.000000"
 preserveAspectRatio="xMidYMid meet">
<metadata>
Created by potrace 1.14, written by Peter Selinger 2001-2017
</metadata>
<g transform="translate(0.000000,120.000000) scale(0.100000,-0.100000)"
fill="#000000" stroke="none">
<path d="M704 1181 c-114 -51 -141 -172 -79 -357 66 -198 149 -264 225 -177
81 92 147 314 121 409 -11 42 -49 90 -92 118 -40 25 -126 29 -175 7z"/>
<path d="M242 1008 c-9 -9 -12 -133 -12 -494 0 -425 2 -484 16 -498 13 -14 54
-16 294 -16 309 0 299 -2 296 65 -4 56 1 55 -247 55 l-229 0 0 444 c0 493 6
456 -69 456 -20 0 -42 -5 -49 -12z"/>
</g>
</svg>
