<?xml version="1.0" standalone="no"?>
<!DOCTYPE svg PUBLIC "-//W3C//DTD SVG 20010904//EN"
 "http://www.w3.org/TR/2001/REC-SVG-20010904/DTD/svg10.dtd">
<svg version="1.0" xmlns="http://www.w3.org/2000/svg"
 width="1213.000000pt" height="1213.000000pt" viewBox="0 0 1213.000000 1213.000000"
 preserveAspectRatio="xMidYMid meet">
<metadata>
Created by potrace 1.14, written by Peter Selinger 2001-2017
</metadata>
<g transform="translate(0.000000,1213.000000) scale(0.100000,-0.100000)"
fill="#000000" stroke="none">
<path d="M4135 12119 c-22 -3 -52 -11 -66 -17 -41 -17 -81 -81 -94 -150 -3
-15 -7 -36 -9 -47 -3 -11 -14 -63 -25 -115 -21 -100 -79 -371 -87 -405 -2 -11
-6 -32 -9 -47 -3 -16 -12 -58 -21 -95 -9 -38 -18 -79 -20 -93 -4 -22 -13 -64
-20 -95 -7 -28 -33 -154 -37 -175 -3 -14 -19 -88 -36 -165 -17 -77 -33 -151
-35 -165 -3 -14 -7 -34 -10 -45 -3 -11 -16 -76 -31 -144 -14 -69 -28 -127 -30
-130 -1 -3 -6 -23 -9 -45 -3 -21 -28 -140 -56 -265 -27 -124 -51 -237 -54
-251 -3 -14 -32 -149 -65 -300 -33 -151 -69 -320 -81 -375 -12 -55 -24 -111
-26 -125 -3 -14 -7 -32 -9 -40 -4 -12 -53 -238 -71 -325 -2 -11 -17 -81 -33
-155 -16 -74 -32 -146 -35 -160 -3 -14 -18 -86 -35 -160 -16 -74 -32 -146 -35
-160 -3 -14 -7 -34 -10 -45 -12 -55 -38 -173 -43 -200 -2 -16 -23 -109 -44
-205 -22 -96 -42 -188 -45 -205 -3 -16 -25 -122 -50 -235 -25 -113 -61 -277
-80 -365 -19 -88 -46 -209 -59 -270 -13 -60 -26 -121 -29 -135 -3 -14 -14 -68
-26 -120 -12 -52 -24 -105 -26 -118 -5 -24 -45 -207 -71 -322 -8 -36 -16 -74
-18 -85 -3 -11 -18 -81 -34 -155 -16 -74 -32 -146 -34 -160 -3 -14 -12 -55
-21 -91 -8 -37 -17 -78 -20 -90 -2 -13 -9 -44 -15 -69 -5 -25 -12 -56 -15 -70
-2 -14 -11 -54 -19 -90 -21 -91 -45 -201 -51 -230 -2 -14 -16 -77 -31 -140
-14 -63 -28 -128 -31 -145 -3 -16 -9 -46 -14 -65 -5 -19 -56 -253 -115 -520
-58 -267 -110 -503 -115 -525 -10 -42 -45 -201 -54 -245 -2 -14 -14 -68 -26
-120 -12 -52 -24 -106 -26 -120 -3 -14 -19 -86 -35 -160 -17 -74 -33 -146 -35
-160 -3 -14 -7 -32 -9 -40 -3 -8 -7 -33 -11 -55 -3 -22 -8 -43 -11 -47 -4 -8
-8 -25 -18 -80 -3 -15 -21 -101 -41 -190 -20 -90 -38 -174 -41 -188 -2 -14
-22 -104 -43 -200 -21 -96 -48 -222 -60 -280 -12 -58 -25 -118 -30 -135 -5
-16 -11 -43 -14 -60 -2 -16 -14 -73 -26 -125 -11 -52 -30 -138 -41 -190 -11
-52 -22 -103 -24 -113 -6 -25 52 -54 71 -35 7 7 74 101 148 208 74 107 139
200 143 205 5 6 51 72 103 148 52 76 129 186 170 245 42 59 101 143 131 187
31 44 145 208 254 365 109 157 220 317 247 355 46 66 315 453 338 485 12 17
275 395 359 515 118 171 740 1064 786 1130 27 39 64 93 83 120 20 28 65 93
102 145 37 52 87 124 111 160 25 36 139 200 254 365 190 273 585 840 724 1040
30 44 79 114 108 155 29 41 57 82 63 90 10 15 338 487 449 646 31 44 99 142
151 217 108 156 338 487 370 532 41 57 482 690 498 715 9 14 20 30 25 35 4 6
42 60 84 120 141 204 179 259 403 580 123 176 241 347 264 380 22 33 44 65 49
70 4 6 54 76 110 157 146 211 431 621 642 923 100 143 203 292 230 330 528
759 573 825 557 826 -108 4 -5398 2 -5427 -2z"/>
<path d="M10575 4821 c-6 -5 -39 -24 -75 -44 -36 -19 -94 -51 -128 -71 -35
-20 -66 -36 -68 -36 -2 0 -26 -14 -54 -30 -28 -17 -79 -45 -113 -64 -34 -18
-82 -45 -107 -58 -25 -14 -148 -83 -274 -153 -126 -70 -254 -140 -285 -157
-31 -17 -189 -104 -351 -193 -383 -211 -581 -319 -600 -328 -8 -4 -29 -16 -47
-26 -17 -11 -67 -39 -110 -62 -43 -23 -87 -47 -98 -54 -11 -7 -54 -30 -95 -52
-89 -48 -164 -89 -205 -113 -16 -9 -61 -34 -98 -54 -37 -20 -82 -45 -100 -55
-18 -10 -72 -40 -122 -66 -49 -27 -112 -61 -138 -77 -26 -15 -49 -28 -51 -28
-2 0 -56 -29 -120 -65 -64 -36 -118 -65 -120 -65 -2 0 -37 -19 -78 -43 -40
-24 -107 -62 -149 -84 -42 -23 -157 -86 -255 -141 -99 -54 -210 -116 -249
-137 -38 -21 -95 -52 -125 -70 -30 -18 -80 -46 -110 -62 -115 -62 -517 -287
-552 -310 -21 -12 -40 -23 -42 -23 -5 0 -199 -107 -596 -330 -91 -51 -282
-158 -425 -238 -143 -79 -295 -164 -338 -189 -42 -24 -99 -55 -125 -70 -26
-14 -63 -35 -82 -46 -19 -11 -222 -124 -450 -252 -475 -266 -446 -250 -650
-365 -85 -48 -211 -119 -280 -157 -69 -39 -147 -83 -175 -98 -173 -98 -214
-119 -246 -130 -62 -22 -117 -54 -133 -77 -26 -37 -20 -85 15 -120 30 -30 30
-31 107 -23 68 6 4921 10 6472 5 327 -1 604 1 616 3 108 26 155 58 197 134 24
44 49 124 62 193 9 47 24 119 55 260 10 47 21 96 24 110 4 24 38 180 70 325 8
39 17 82 20 95 2 14 25 117 50 230 25 113 47 216 50 230 2 14 28 128 56 253
28 126 53 238 56 250 3 19 15 70 19 87 1 4 8 36 21 100 1 8 28 128 58 265 31
138 58 259 60 270 2 11 20 94 41 185 20 91 47 217 61 280 13 63 31 142 39 175
8 33 17 76 20 95 3 19 19 94 35 165 26 116 62 285 76 355 3 14 10 45 15 70 6
25 13 56 15 70 3 14 14 63 24 110 10 47 21 96 24 110 3 20 66 318 80 383 4 18
-4 22 -19 8z"/>
</g>
</svg>
