<?xml version="1.0" standalone="no"?>
<!DOCTYPE svg PUBLIC "-//W3C//DTD SVG 20010904//EN"
 "http://www.w3.org/TR/2001/REC-SVG-20010904/DTD/svg10.dtd">
<svg version="1.0" xmlns="http://www.w3.org/2000/svg"
 width="710.000000pt" height="710.000000pt" viewBox="0 0 710.000000 710.000000"
 preserveAspectRatio="xMidYMid meet">
<metadata>
Created by potrace 1.14, written by Peter Selinger 2001-2017
</metadata>
<g transform="translate(0.000000,710.000000) scale(0.100000,-0.100000)"
fill="#000000" stroke="none">
<path d="M3715 7093 c-56 -10 -105 -27 -105 -36 0 -6 -3 -8 -6 -4 -9 9 -81
-30 -93 -50 -6 -10 -11 -14 -11 -10 0 13 -30 -20 -30 -33 0 -6 -4 -8 -10 -5
-5 3 -10 2 -10 -4 0 -6 -9 -19 -21 -30 -13 -11 -18 -24 -14 -32 5 -7 4 -10 -2
-6 -18 12 -55 -103 -59 -185 -4 -81 11 -150 48 -223 32 -62 120 -142 196 -178
62 -30 74 -32 172 -32 95 0 111 3 165 29 33 16 79 44 101 62 48 39 108 125
130 186 22 64 25 180 4 247 -20 68 -47 121 -60 121 -6 0 -9 4 -7 8 2 9 -48 72
-58 72 -3 0 -15 8 -26 19 -23 22 -97 61 -125 66 -10 2 -19 4 -19 6 0 7 -131
17 -160 12z"/>
<path d="M1625 6823 c-11 -3 -27 -7 -35 -10 -22 -9 -28 -10 -51 -12 -12 -1
-17 -5 -13 -13 4 -6 3 -8 -4 -4 -13 8 -92 -31 -92 -46 0 -5 -4 -6 -10 -3 -12
7 -62 -37 -135 -119 -31 -35 -40 -50 -32 -59 1 -1 -7 -13 -19 -25 -17 -19 -53
-107 -43 -107 1 0 -3 -10 -10 -23 -16 -29 -21 -182 -9 -236 5 -23 11 -48 13
-57 6 -28 48 -113 79 -159 82 -121 220 -210 366 -235 69 -12 177 -7 239 10 64
19 181 74 181 87 0 4 4 8 10 8 5 0 26 17 48 38 123 120 182 262 176 422 -1 41
-4 82 -7 90 -2 8 -7 30 -11 49 -40 169 -227 357 -386 388 -42 8 -55 11 -55 14
0 4 -180 5 -200 2z"/>
<path d="M5648 6565 c-2 -3 -20 -5 -39 -6 -18 -2 -40 -7 -46 -12 -7 -5 -13 -7
-13 -4 0 14 -157 -50 -187 -77 -7 -6 -30 -24 -51 -41 -125 -97 -207 -275 -205
-447 4 -264 179 -488 438 -559 65 -17 216 -17 280 0 107 30 232 104 294 176
38 44 101 147 96 155 -3 5 -1 10 5 12 5 1 11 12 13 23 1 11 5 25 8 30 30 51
31 261 2 335 -4 8 -7 17 -8 20 -9 38 -29 80 -36 80 -6 0 -7 5 -4 10 3 6 1 10
-4 10 -6 0 -11 7 -11 15 0 9 -7 18 -15 21 -8 4 -13 10 -10 15 6 9 -125 142
-133 135 -3 -3 -13 4 -24 16 -10 12 -21 19 -24 15 -3 -3 -15 3 -27 14 -11 10
-28 19 -37 19 -9 0 -21 5 -28 12 -7 7 -12 8 -12 4 0 -5 -7 -3 -15 4 -9 7 -18
10 -21 7 -3 -3 -17 -1 -31 4 -26 10 -148 21 -155 14z"/>
<path d="M3367 5573 c-2 -1 -27 -4 -57 -7 -94 -8 -335 -56 -335 -66 0 -1 -11
-3 -25 -6 -24 -4 -38 -9 -105 -35 -16 -7 -32 -13 -35 -13 -17 -3 -96 -42 -102
-51 -4 -5 -8 -7 -8 -2 0 10 -62 -22 -72 -37 -4 -6 -8 -8 -8 -4 0 11 -80 -32
-80 -43 0 -5 -3 -8 -7 -7 -13 3 -73 -32 -73 -42 0 -6 -4 -9 -8 -7 -9 2 -53
-27 -84 -55 -10 -10 -18 -16 -18 -13 0 6 -29 -17 -78 -62 -19 -18 -39 -33 -44
-33 -5 0 -7 -4 -4 -9 3 -5 -4 -11 -15 -14 -12 -3 -18 -10 -14 -17 4 -6 1 -9
-7 -8 -7 2 -12 -3 -11 -9 2 -7 -3 -12 -10 -10 -6 1 -11 -4 -9 -11 1 -8 -2 -11
-8 -7 -5 3 -14 -5 -20 -19 -5 -14 -12 -26 -15 -26 -4 0 -3 6 1 13 4 6 -5 1
-18 -13 -14 -14 -23 -28 -21 -32 2 -5 0 -8 -6 -8 -5 0 -34 -31 -63 -69 -74
-96 -83 -111 -80 -124 2 -7 0 -9 -4 -4 -9 9 -45 -43 -38 -55 3 -4 -2 -11 -10
-14 -9 -3 -16 -10 -16 -15 0 -4 -13 -31 -30 -59 -16 -27 -26 -50 -22 -50 4 0
1 -4 -6 -9 -7 -4 -14 -15 -16 -23 -1 -9 -8 -24 -16 -34 -8 -9 -14 -20 -13 -23
1 -3 -4 -19 -12 -36 -28 -62 -54 -143 -48 -149 4 -3 1 -6 -6 -6 -7 0 -11 -7
-8 -15 4 -8 2 -17 -2 -20 -5 -2 -12 -22 -16 -42 -5 -21 -9 -42 -11 -48 -5 -19
-14 -60 -19 -90 -3 -16 -8 -37 -10 -45 -31 -114 -34 -466 -5 -607 6 -26 12
-61 14 -78 8 -60 52 -221 77 -280 14 -35 13 -32 23 -67 5 -16 12 -28 18 -28 5
0 7 -4 4 -8 -5 -9 34 -93 55 -118 6 -8 8 -14 4 -14 -5 0 -1 -8 8 -18 10 -10
14 -22 11 -25 -4 -4 1 -9 10 -13 9 -3 14 -9 12 -13 -6 -10 128 -206 189 -278
106 -123 215 -224 343 -317 107 -79 147 -102 287 -171 137 -67 197 -89 355
-130 128 -33 162 -39 285 -52 124 -13 437 -5 487 12 7 2 31 7 52 10 22 3 73
14 115 25 599 153 1081 578 1312 1155 31 77 74 220 85 279 2 16 6 32 8 35 2 3
7 26 10 51 4 25 10 72 15 105 9 59 7 424 -2 477 -3 16 -8 47 -12 70 -4 24 -9
54 -12 68 -6 34 -61 230 -72 255 -5 11 -19 45 -31 75 -105 262 -283 511 -511
716 -47 42 -211 165 -229 172 -8 3 -28 15 -45 27 -16 12 -79 46 -140 74 -60
29 -118 57 -128 62 -10 5 -22 7 -27 4 -4 -3 -10 -1 -12 4 -3 8 -148 58 -193
67 -24 5 -57 12 -85 19 -64 16 -98 21 -195 31 -59 6 -334 12 -338 7z"/>
<path d="M540 5048 c-19 -5 -42 -12 -50 -15 -19 -8 -19 -8 -52 -17 -15 -4 -29
-14 -32 -23 -3 -8 -10 -12 -16 -8 -5 3 -15 -3 -22 -15 -7 -11 -16 -20 -20 -20
-5 0 -17 -9 -28 -20 -11 -11 -17 -20 -13 -20 4 0 -3 -7 -15 -16 -12 -8 -20
-20 -17 -25 4 -5 3 -9 -2 -9 -12 0 -41 -66 -57 -127 -8 -29 -12 -78 -11 -109
5 -70 25 -154 39 -154 5 0 6 -3 3 -7 -4 -3 1 -12 11 -20 10 -9 11 -11 2 -7 -8
5 -2 -10 14 -32 137 -186 372 -236 569 -121 88 52 163 158 185 262 56 263
-128 499 -398 510 -30 1 -71 -2 -90 -7z"/>
<path d="M6486 4494 c-232 -56 -369 -296 -302 -527 23 -80 73 -150 146 -208
70 -55 165 -88 255 -89 34 0 61 6 160 33 26 8 75 39 75 48 0 6 4 8 8 5 10 -6
92 77 92 93 0 6 4 11 9 11 9 0 37 52 43 80 2 8 6 17 10 20 20 15 25 220 6 220
-5 0 -7 4 -4 8 7 12 -19 83 -33 92 -7 4 -12 10 -12 14 4 25 -93 136 -119 136
-6 0 -10 3 -10 8 0 8 -66 39 -115 54 -53 15 -148 16 -209 2z"/>
<path d="M545 3208 c-121 -15 -251 -79 -330 -162 -51 -53 -91 -107 -87 -118 1
-4 -2 -8 -7 -8 -9 0 -48 -92 -42 -99 1 -2 -2 -7 -7 -10 -39 -24 -31 -363 10
-379 4 -2 8 -12 8 -22 0 -23 38 -90 52 -90 5 0 6 -5 3 -11 -8 -12 151 -172
164 -165 5 3 11 -1 15 -9 3 -8 14 -15 24 -15 10 0 22 -4 28 -8 14 -14 85 -39
129 -48 67 -12 177 -11 240 3 240 53 429 261 451 495 3 34 6 65 7 68 1 3 -2
36 -6 73 -12 107 -61 220 -140 318 -28 35 -127 107 -187 136 -105 49 -210 66
-325 51z"/>
<path d="M6215 2733 c-119 -22 -218 -76 -312 -169 -228 -225 -226 -594 4 -817
61 -59 90 -79 168 -116 111 -52 261 -66 375 -36 14 4 31 7 38 7 6 1 12 6 12
11 0 6 3 7 6 4 4 -3 16 -1 28 5 11 7 23 13 26 13 18 4 60 30 60 37 0 5 4 7 10
3 12 -7 155 133 164 163 4 12 12 22 18 22 6 0 9 3 5 6 -3 4 1 13 9 21 8 8 12
19 9 24 -4 5 -2 9 3 9 9 0 33 66 38 105 1 11 3 20 4 20 8 0 15 126 10 180 -5
49 -32 145 -41 145 -5 0 -8 3 -7 8 8 31 -54 126 -134 203 -121 119 -326 182
-493 152z"/>
<path d="M5011 1414 c-316 -82 -424 -471 -195 -699 49 -48 133 -99 185 -111
66 -16 166 -13 232 6 37 11 67 25 67 30 0 6 3 9 8 9 23 -4 39 7 98 65 58 59
66 71 63 92 0 4 4 10 9 13 23 14 49 123 47 194 -3 88 -10 118 -40 178 -69 139
-199 224 -354 233 -37 2 -90 -3 -120 -10z"/>
<path d="M1660 1413 c-55 -11 -167 -72 -208 -114 -42 -42 -91 -114 -96 -141
-2 -7 -6 -20 -9 -28 -24 -54 -28 -200 -6 -226 5 -6 6 -13 3 -16 -3 -4 6 -32
21 -63 29 -64 121 -163 173 -186 17 -7 32 -18 32 -23 0 -4 7 -6 15 -2 8 3 15
1 15 -5 0 -6 7 -9 15 -6 8 4 17 2 21 -4 3 -6 12 -8 20 -5 7 3 16 1 18 -3 9
-15 152 -4 202 14 209 78 321 279 274 490 -33 147 -153 272 -299 309 -48 13
-148 17 -191 9z"/>
<path d="M3475 1163 c-79 -8 -156 -27 -212 -54 -213 -101 -344 -314 -338 -545
5 -139 63 -281 159 -383 26 -28 140 -113 156 -117 3 0 19 -6 35 -13 17 -6 34
-11 39 -10 5 0 12 -4 15 -9 10 -16 78 -25 181 -25 96 1 124 4 136 15 3 4 12 4
20 1 8 -3 14 0 14 7 0 6 4 8 10 5 12 -7 150 63 150 76 0 5 5 9 11 9 10 0 93
81 124 122 61 78 106 213 108 322 1 128 -21 216 -80 314 -96 158 -253 261
-427 278 -33 3 -63 7 -66 8 -3 1 -18 0 -35 -1z"/>
</g>
</svg>
