<?xml version="1.0" standalone="no"?>
<!DOCTYPE svg PUBLIC "-//W3C//DTD SVG 20010904//EN"
 "http://www.w3.org/TR/2001/REC-SVG-20010904/DTD/svg10.dtd">
<svg version="1.0" xmlns="http://www.w3.org/2000/svg"
 width="135.000000pt" height="135.000000pt" viewBox="0 0 135.000000 135.000000"
 preserveAspectRatio="xMidYMid meet">
<metadata>
Created by potrace 1.14, written by Peter Selinger 2001-2017
</metadata>
<g transform="translate(0.000000,135.000000) scale(0.100000,-0.100000)"
fill="#000000" stroke="none">
<path d="M340 1091 c-153 -49 -260 -152 -310 -300 -36 -107 -26 -265 19 -310
15 -15 33 -18 102 -16 82 2 209 14 219 20 3 2 25 6 50 10 113 17 281 85 390
157 97 64 250 239 250 285 0 8 14 13 40 13 22 0 40 3 40 8 0 7 -195 102 -210
102 -4 0 -38 -13 -75 -30 -37 -16 -71 -30 -76 -30 -5 0 -28 13 -50 30 -99 71
-272 99 -389 61z"/>
<path d="M1042 772 c-56 -13 -101 -26 -100 -28 2 -1 16 -5 32 -8 16 -3 31 -7
34 -10 11 -11 -121 -107 -203 -148 -123 -62 -332 -114 -469 -117 -22 -1 -37
-4 -33 -7 11 -11 274 -3 357 11 80 13 101 17 157 30 142 33 276 91 368 160 61
46 66 48 125 45 33 -1 30 2 -48 49 -46 28 -91 50 -100 50 -9 -1 -63 -13 -120
-27z"/>
<path d="M140 363 c0 -12 77 -69 125 -92 168 -82 363 -58 503 61 18 15 32 28
32 30 0 2 -149 3 -330 3 -182 0 -330 -1 -330 -2z"/>
</g>
</svg>
