<?xml version="1.0" standalone="no"?>
<!DOCTYPE svg PUBLIC "-//W3C//DTD SVG 20010904//EN"
 "http://www.w3.org/TR/2001/REC-SVG-20010904/DTD/svg10.dtd">
<svg version="1.0" xmlns="http://www.w3.org/2000/svg"
 width="800.000000pt" height="800.000000pt" viewBox="0 0 800.000000 800.000000"
 preserveAspectRatio="xMidYMid meet">
<metadata>
Created by potrace 1.14, written by Peter Selinger 2001-2017
</metadata>
<g transform="translate(0.000000,800.000000) scale(0.100000,-0.100000)"
fill="#000000" stroke="none">
<path d="M2275 5858 c-3 -9 -14 -17 -23 -17 -69 -3 -92 -7 -88 -17 3 -7 -5 -9
-20 -6 -14 2 -24 0 -24 -7 0 -8 -6 -9 -17 -3 -21 11 -46 5 -37 -9 5 -9 -4 -11
-63 -12 -18 0 -33 -4 -33 -8 0 -4 -12 -14 -26 -24 -15 -10 -23 -12 -19 -4 5 7
-1 6 -14 -4 -13 -8 -29 -13 -36 -11 -7 3 -15 -2 -18 -10 -4 -9 -16 -16 -27
-16 -12 0 -19 -4 -16 -8 2 -4 -4 -9 -15 -9 -10 -1 -26 -9 -35 -18 -9 -9 -21
-14 -27 -12 -6 2 -22 -8 -35 -22 -14 -14 -19 -18 -12 -8 18 25 5 21 -25 -8
-14 -14 -25 -21 -25 -15 0 6 -10 2 -22 -10 -21 -19 -33 -24 -51 -21 -5 1 -6
-3 -2 -9 3 -5 0 -10 -8 -10 -8 0 -18 -7 -21 -16 -3 -8 -11 -12 -16 -9 -6 4 -9
1 -8 -7 2 -7 -3 -12 -9 -10 -7 1 -13 -4 -13 -10 0 -9 -4 -8 -11 2 -9 12 -10
11 -6 -7 5 -25 -1 -32 -33 -38 -24 -5 -50 -28 -50 -45 0 -7 -7 -10 -15 -6 -9
3 -15 0 -15 -7 0 -7 -10 -18 -22 -23 -13 -6 -16 -8 -8 -6 9 2 4 -7 -10 -20
-13 -13 -28 -24 -32 -24 -5 -1 -12 -2 -18 -3 -5 0 -9 -4 -9 -8 3 -21 -3 -31
-27 -42 -16 -7 -24 -17 -20 -26 3 -8 -3 -16 -15 -20 -10 -4 -17 -11 -14 -16 4
-5 -1 -9 -9 -9 -9 0 -16 -7 -16 -16 0 -8 -4 -12 -10 -9 -6 3 -10 -4 -10 -17 0
-13 -9 -29 -21 -36 -15 -10 -19 -10 -14 -1 5 8 4 10 -3 5 -7 -4 -12 -16 -12
-28 0 -11 -9 -31 -20 -45 -11 -14 -20 -22 -20 -18 0 4 -9 -4 -20 -18 -11 -14
-20 -29 -19 -34 4 -21 -2 -33 -17 -33 -8 0 -13 -4 -10 -9 3 -5 -1 -11 -9 -15
-8 -3 -14 -15 -12 -28 1 -13 -3 -22 -10 -21 -6 1 -14 -4 -17 -12 -3 -8 -1 -15
4 -15 5 0 7 -7 3 -15 -3 -9 -8 -13 -11 -10 -8 7 -42 -63 -42 -87 0 -10 -7 -18
-16 -18 -11 0 -13 -6 -9 -19 3 -11 1 -22 -4 -25 -6 -4 -8 -13 -5 -20 3 -8 -4
-20 -15 -28 -12 -8 -18 -18 -14 -21 3 -4 1 -7 -6 -7 -8 0 -11 -8 -8 -20 3 -11
1 -22 -4 -25 -4 -3 -6 -12 -2 -20 3 -8 0 -15 -7 -15 -6 0 -9 -4 -6 -9 4 -5 0
-12 -6 -14 -9 -4 -9 -6 1 -6 12 -1 11 -4 -3 -14 -15 -11 -23 -47 -26 -132 0
-17 -2 -17 -10 -5 -5 8 -10 10 -10 5 0 -6 6 -17 13 -24 10 -11 9 -12 -2 -6
-11 6 -13 3 -9 -13 4 -12 3 -24 -1 -26 -4 -3 -6 -24 -6 -48 1 -24 -2 -53 -6
-65 -5 -14 -5 -23 1 -23 9 0 8 -10 -7 -47 -10 -28 -12 -277 -1 -290 6 -7 5
-14 -2 -18 -5 -3 -10 -11 -10 -16 0 -6 5 -7 11 -3 8 5 8 1 0 -13 -7 -14 -7
-23 2 -32 9 -9 8 -16 -1 -32 -8 -12 -9 -18 -4 -15 15 9 19 -12 17 -76 0 -31 1
-56 4 -55 3 1 8 -2 9 -8 2 -5 8 -18 13 -27 7 -13 6 -18 -3 -18 -9 0 -9 -3 2
-10 8 -5 11 -10 6 -10 -5 0 -3 -6 3 -13 6 -8 8 -17 4 -21 -13 -12 -11 -35 2
-30 7 3 13 -1 12 -8 -1 -41 4 -68 13 -63 9 5 16 -40 11 -68 -1 -5 3 -6 9 -2
10 6 13 -3 13 -37 0 -9 6 -19 14 -22 9 -4 11 -2 7 6 -5 7 -3 8 5 4 7 -5 11
-18 9 -31 -1 -12 3 -30 11 -38 7 -9 11 -23 8 -32 -4 -8 0 -18 8 -22 7 -5 15
-20 17 -35 2 -15 8 -31 13 -35 4 -4 5 -2 1 5 -4 6 -2 12 5 12 6 0 9 -8 6 -20
-3 -11 0 -20 5 -20 6 0 4 -8 -3 -17 -8 -9 -9 -14 -4 -11 10 6 59 -54 61 -76 3
-31 5 -36 12 -35 4 1 16 1 27 0 17 -1 18 -3 5 -11 -13 -8 -12 -10 3 -10 10 0
15 -4 12 -10 -3 -5 -1 -10 4 -10 6 0 10 -3 10 -7 -1 -5 -1 -18 0 -31 1 -20 4
-21 21 -12 18 9 20 8 20 -15 0 -25 31 -65 51 -65 5 0 8 -4 4 -9 -3 -6 2 -14
10 -19 9 -4 17 -18 18 -29 0 -11 10 -26 20 -33 15 -9 18 -9 12 2 -3 7 0 5 8
-4 8 -10 17 -15 20 -11 4 3 7 -1 7 -10 0 -9 7 -17 15 -17 8 0 15 -9 15 -20 0
-13 7 -20 20 -20 11 0 20 -7 20 -15 0 -8 4 -15 8 -15 12 0 52 -35 52 -45 0
-13 83 -84 92 -79 4 3 8 0 8 -5 0 -6 18 -19 40 -28 22 -10 40 -25 40 -33 0
-13 1 -13 10 0 8 13 10 12 10 -3 0 -10 5 -15 10 -12 6 3 10 -1 10 -9 0 -12 7
-14 30 -9 29 5 31 4 26 -21 -4 -24 -3 -25 16 -15 11 6 18 7 15 2 -2 -4 10 -15
29 -24 18 -9 31 -11 27 -5 -4 6 3 3 14 -6 11 -10 25 -18 31 -18 7 0 12 -4 12
-10 0 -5 11 -10 25 -10 14 0 25 -4 25 -9 0 -5 12 -11 28 -13 15 -2 26 -8 25
-15 -1 -6 5 -10 15 -8 9 1 20 -2 23 -7 5 -8 49 -20 79 -21 8 0 18 -5 22 -11 4
-6 20 -12 35 -12 15 -1 42 -2 58 -3 23 -1 27 -3 15 -11 -12 -8 -11 -10 8 -11
12 -1 27 -3 32 -4 6 -1 15 -3 21 -4 5 0 7 -7 3 -13 -5 -9 -2 -9 9 1 9 7 17 9
17 3 0 -5 10 -8 22 -4 15 4 19 2 13 -7 -6 -10 -3 -11 11 -3 11 5 30 8 44 7 14
-2 62 -4 107 -6 73 -2 81 -4 70 -18 -8 -12 -6 -11 9 1 11 10 27 18 35 18 12 0
11 -2 -1 -11 -12 -9 -11 -9 5 -4 42 16 68 18 61 6 -4 -6 -12 -8 -18 -5 -7 5
-8 2 -4 -5 6 -9 12 -9 25 3 21 19 35 21 25 3 -6 -9 -4 -9 7 -1 8 5 57 11 109
13 53 1 98 7 101 13 4 6 33 12 65 14 33 2 60 8 62 14 2 5 19 10 37 10 18 0 35
5 37 11 2 6 24 13 48 16 25 3 51 13 58 22 10 11 11 12 6 1 -7 -13 -6 -13 11 0
10 8 20 14 22 13 8 -7 34 -2 30 5 -3 4 11 8 31 8 20 1 38 7 40 13 2 6 10 11
18 11 8 0 14 5 14 10 0 6 6 10 13 10 7 0 29 8 48 18 20 10 49 17 65 16 20 -2
23 -1 11 4 -16 7 -16 8 3 25 19 16 25 14 20 -8 -1 -5 2 -6 7 -2 4 5 8 14 8 20
0 7 10 11 23 11 12 -1 22 4 22 12 0 8 7 14 15 14 8 0 15 5 15 11 0 6 7 9 15 5
8 -3 15 -1 15 5 0 6 5 7 10 4 6 -3 10 1 10 9 0 9 7 16 15 16 8 0 15 5 15 10 0
6 11 10 25 10 14 0 25 5 25 11 0 5 5 7 10 4 6 -3 10 -1 10 4 0 6 7 11 16 11 8
0 13 4 9 9 -3 5 -1 12 5 16 5 3 10 0 10 -7 0 -9 3 -9 10 2 5 8 10 12 10 7 0
-4 16 9 35 28 19 20 46 38 60 39 13 1 33 9 42 17 10 9 28 14 40 13 12 0 20 3
17 7 -3 5 8 11 23 15 15 4 30 11 33 15 3 4 19 10 35 13 17 2 32 5 35 6 3 1 8
2 13 1 4 0 7 4 7 9 0 6 8 10 18 8 9 -2 16 2 15 9 -1 6 5 10 15 8 9 -1 22 0 27
4 6 3 19 7 30 8 10 2 22 7 25 11 5 7 19 11 46 16 7 1 19 8 28 15 9 8 19 11 23
8 3 -4 13 -1 21 5 14 12 22 14 72 20 14 2 28 7 32 12 3 5 27 10 53 12 26 1 50
7 54 12 4 6 18 12 31 14 14 2 36 11 48 20 18 12 31 14 53 8 22 -7 31 -5 35 4
3 8 14 12 25 9 10 -3 19 -1 19 4 0 4 29 8 65 7 36 0 65 3 65 9 0 5 7 6 16 3 8
-3 12 -2 9 4 -4 6 10 10 35 10 23 0 39 4 36 9 -3 4 14 8 37 9 134 1 206 6 201
13 -6 10 -10 10 76 14 36 2 80 6 98 8 17 3 32 2 32 -2 0 -8 128 -6 137 2 3 4
14 2 23 -3 12 -7 21 -6 29 3 13 17 599 21 619 5 8 -7 12 -7 12 0 0 5 7 13 16
16 8 3 12 2 9 -4 -3 -6 -2 -10 3 -10 6 0 13 7 16 16 3 8 11 12 17 8 8 -4 9 -3
5 4 -4 7 -3 12 2 12 5 0 10 21 11 47 1 26 6 50 12 54 7 4 8 12 5 18 -4 6 -1
11 6 11 9 1 7 5 -4 14 -21 15 -24 46 -5 47 6 0 3 4 -8 9 l-20 9 20 0 c14 1 16
4 7 9 -15 10 -21 247 -6 262 15 15 37 -6 39 -37 1 -16 5 -34 9 -41 4 -7 5 -16
2 -21 -4 -5 4 -7 16 -3 14 3 19 1 14 -6 -4 -6 -1 -24 7 -39 7 -15 12 -36 10
-45 -3 -9 4 -29 14 -45 11 -17 13 -24 5 -19 -11 7 -12 4 -3 -11 6 -11 8 -23 6
-27 -3 -3 -2 -4 1 -2 3 2 17 -7 30 -21 18 -18 29 -22 36 -15 10 10 18 8 54
-12 1 -1 11 7 23 18 11 10 27 16 36 13 8 -4 15 -2 15 3 0 6 -6 10 -12 10 -9 1
-8 4 2 13 18 15 19 69 1 91 -7 8 -10 19 -7 25 4 5 -2 12 -11 15 -13 4 -18 15
-17 38 1 18 -4 40 -11 48 -7 8 -16 31 -19 50 -3 19 -10 36 -15 38 -6 2 -11 16
-11 30 0 21 -2 24 -10 12 -7 -11 -10 -2 -11 33 -2 66 -2 67 -19 77 -8 5 -12
10 -7 10 4 0 0 11 -9 25 -9 14 -13 25 -10 25 4 0 2 9 -4 20 -6 11 -15 18 -19
15 -5 -3 -8 13 -7 35 0 26 -3 40 -11 40 -7 0 -14 5 -14 10 -1 6 -3 19 -4 30
-4 34 -5 35 -14 22 -5 -9 -8 -3 -9 18 0 17 -6 38 -12 45 -7 8 -9 19 -5 25 3 5
1 10 -5 10 -6 0 -8 5 -5 10 3 6 1 10 -5 10 -6 0 -8 5 -5 10 3 6 1 10 -6 10 -7
0 -10 3 -7 6 4 3 3 18 -2 34 -5 18 -4 32 3 39 6 6 7 11 2 11 -6 0 -10 58 -10
140 0 82 4 140 10 140 5 0 4 5 -2 11 -6 6 -9 18 -6 26 3 8 1 18 -6 22 -16 11
-20 101 -4 101 12 0 18 -20 14 -44 -3 -17 11 -46 20 -41 5 3 6 0 3 -8 -3 -8
-1 -18 5 -21 6 -4 9 -12 7 -19 -1 -7 -1 -9 1 -4 11 18 24 4 20 -22 -3 -18 0
-31 8 -34 14 -6 27 -57 14 -57 -5 0 -6 -7 -3 -15 4 -8 10 -12 15 -9 9 5 11 0
13 -28 1 -7 9 -21 20 -32 13 -13 15 -21 7 -29 -8 -8 -6 -16 6 -30 16 -17 20
-32 22 -89 1 -10 7 -18 15 -18 9 0 12 -8 8 -26 -4 -21 -2 -25 8 -19 10 6 12 4
7 -8 -3 -9 -2 -19 3 -22 5 -3 7 -12 4 -20 -3 -7 3 -22 15 -31 11 -10 18 -21
15 -26 -3 -5 -1 -15 5 -21 5 -7 12 -31 14 -52 3 -22 10 -41 16 -43 6 -2 11
-13 11 -23 0 -11 5 -17 10 -14 6 3 10 -4 11 -17 3 -84 6 -100 18 -107 8 -5 12
-18 8 -30 -4 -15 0 -21 12 -21 13 0 17 -8 16 -32 -2 -45 5 -64 16 -46 9 13 14
-15 9 -56 -1 -11 3 -15 9 -12 7 4 11 -1 11 -14 0 -12 7 -28 15 -36 13 -13 20
-42 16 -66 0 -5 3 -8 7 -8 5 0 9 -6 10 -12 3 -33 10 -52 20 -56 7 -2 12 -16
12 -32 0 -25 3 -28 30 -26 21 2 27 -1 19 -10 -7 -8 -3 -13 11 -17 11 -3 18 -1
15 3 -3 5 14 8 37 7 24 -1 43 3 43 8 0 6 4 16 8 23 5 6 4 12 -2 12 -5 0 -11
-5 -13 -12 -2 -6 -14 -12 -26 -13 -11 -1 -19 2 -16 7 4 5 12 7 20 4 8 -3 14
-1 14 4 0 6 -4 10 -10 10 -5 0 -10 5 -10 11 0 8 4 8 13 1 8 -7 18 -7 27 -2 13
8 12 10 -2 10 -10 0 -18 5 -18 11 0 5 5 7 10 4 6 -3 10 -1 10 5 0 6 4 9 8 6
14 -9 6 45 -10 64 -11 12 -13 21 -6 28 6 6 1 8 -15 5 -22 -4 -24 -2 -19 23 4
24 2 26 -17 21 -11 -3 -21 -1 -21 4 0 5 5 9 10 9 6 0 10 5 10 10 0 6 -7 10
-16 10 -10 0 -14 6 -11 14 3 8 -3 22 -14 32 -10 9 -19 23 -19 31 0 8 -4 12 -9
9 -5 -3 -12 1 -15 10 -3 8 -2 12 4 9 18 -11 11 4 -14 28 -16 17 -21 28 -15 38
13 20 11 29 -6 29 -8 0 -15 5 -15 11 0 5 6 7 13 3 8 -5 8 -2 -2 9 -7 9 -11 17
-7 17 3 0 1 11 -4 24 -5 15 -5 27 3 35 8 8 8 11 -2 11 -7 0 -9 5 -6 10 4 6 1
18 -7 27 -10 13 -10 15 0 9 10 -6 12 -1 8 21 -2 15 -5 32 -5 36 -1 5 -5 5 -11
2 -6 -4 -7 2 -1 18 5 13 6 30 1 37 -4 7 -6 24 -4 37 3 14 1 22 -5 19 -12 -8
-21 18 -21 64 0 26 -5 40 -16 44 -9 4 -14 9 -11 12 3 4 -1 13 -9 21 -8 8 -12
19 -9 24 4 5 1 9 -5 9 -6 0 -8 5 -5 10 4 6 2 16 -3 23 -6 7 -13 29 -16 50 -3
21 -13 46 -22 54 -12 12 -12 18 -3 23 8 6 5 11 -11 20 -16 8 -21 18 -17 35 2
14 -1 23 -7 22 -7 -1 -11 17 -11 46 0 30 -4 47 -12 47 -7 0 -10 7 -7 15 4 8 1
15 -6 15 -7 0 -10 7 -6 15 3 8 0 14 -6 12 -6 -1 -12 17 -14 41 -3 24 -11 50
-19 59 -8 8 -12 20 -8 26 4 6 0 8 -10 4 -12 -4 -15 0 -12 22 3 22 -4 36 -33
62 -34 32 -72 41 -72 18 0 -5 -16 -9 -35 -9 -19 0 -35 5 -35 10 0 6 5 10 10
10 6 0 10 39 10 96 0 87 -2 97 -22 115 -13 10 -31 18 -41 19 -10 0 -16 4 -13
8 6 11 -35 13 -49 3 -17 -14 -415 -12 -415 2 0 7 -4 6 -10 -3 -7 -12 -13 -13
-28 -3 -15 9 -22 9 -31 0 -8 -8 -11 -8 -11 2 0 10 -3 11 -14 2 -10 -9 -16 -9
-21 -1 -4 6 -13 9 -20 6 -8 -3 -16 0 -19 7 -2 7 -5 8 -5 1 -1 -7 -18 -8 -48
-5 -27 3 -103 6 -170 6 -71 0 -119 4 -115 9 3 5 -2 7 -11 3 -9 -3 -19 -2 -23
4 -4 6 -11 6 -20 -2 -11 -9 -14 -8 -14 2 0 11 -2 11 -10 -1 -7 -10 -10 -11
-10 -2 0 8 -11 11 -35 9 -20 -3 -38 -1 -40 3 -3 5 -14 6 -25 3 -16 -4 -19 -2
-14 13 5 18 5 18 -6 2 -6 -10 -16 -18 -23 -18 -7 0 -6 4 3 10 12 8 11 10 -7
10 -12 0 -29 3 -39 7 -13 5 -15 3 -9 -7 6 -10 4 -11 -6 -4 -8 5 -25 9 -39 9
-16 0 -24 6 -22 14 3 12 0 12 -14 0 -15 -12 -17 -12 -9 0 6 11 4 13 -8 8 -10
-3 -17 -3 -17 2 0 4 -10 7 -22 6 -13 -1 -29 2 -36 8 -7 6 -33 9 -58 9 -30 -2
-46 2 -50 11 -3 9 -25 15 -62 16 -31 2 -63 3 -70 4 -7 0 -11 5 -9 11 3 7 -13
11 -45 11 -42 0 -47 1 -32 12 16 12 15 13 -10 13 -15 0 -25 4 -22 8 4 7 -12
11 -79 16 -20 2 -29 7 -27 17 1 9 -3 7 -13 -5 -8 -11 -15 -14 -15 -8 0 7 -10
22 -22 34 -16 16 -20 17 -15 5 6 -16 4 -16 -23 -2 -16 8 -42 15 -59 15 -16 0
-31 5 -33 10 -2 6 -13 12 -25 13 -13 0 -25 7 -27 14 -3 7 -12 10 -21 7 -8 -3
-15 -2 -15 3 0 15 -42 31 -72 27 -20 -2 -25 1 -21 12 3 8 1 14 -5 14 -6 0 -13
-6 -15 -12 -3 -7 -6 -3 -6 10 -1 14 -7 22 -19 22 -9 0 -23 9 -30 21 -11 17
-16 19 -30 8 -9 -8 -14 -10 -10 -5 8 10 -14 36 -24 29 -5 -2 -8 1 -8 7 0 7 -7
9 -16 6 -8 -3 -12 -2 -9 3 3 5 -7 11 -22 13 -19 2 -28 8 -27 21 1 10 -5 17
-17 17 -10 0 -20 4 -24 10 -3 5 -12 7 -21 3 -9 -3 -14 0 -12 8 2 8 -3 13 -10
11 -7 -1 -15 5 -18 13 -3 8 -10 12 -15 9 -5 -3 -9 -1 -9 5 0 6 -6 8 -13 5 -9
-3 -13 3 -13 17 1 17 -6 23 -29 26 -34 5 -57 21 -49 34 3 5 -3 6 -12 2 -12 -4
-15 -3 -10 5 4 7 1 12 -8 12 -9 0 -16 8 -17 18 0 9 -3 12 -5 6 -7 -16 -44 -5
-44 13 0 8 -4 12 -9 9 -12 -8 -33 19 -23 30 4 4 0 3 -10 -4 -9 -7 -19 -9 -22
-4 -3 5 -17 8 -30 7 -15 -2 -24 2 -23 8 1 6 -8 13 -21 15 -12 2 -20 8 -17 13
4 5 -1 9 -9 9 -9 0 -16 5 -16 11 0 5 -4 7 -10 4 -5 -3 -10 -1 -10 5 0 7 -7 10
-15 6 -8 -3 -15 -1 -15 4 0 5 -6 7 -13 4 -7 -2 -21 3 -32 12 -11 8 -14 12 -6
8 9 -4 12 -3 8 4 -4 5 -16 8 -27 5 -11 -3 -20 -1 -20 5 0 5 -6 10 -12 9 -44
-1 -72 4 -60 12 17 10 -70 23 -94 14 -12 -4 -15 -3 -10 5 4 7 1 12 -9 12 -10
0 -13 -5 -9 -12 4 -8 3 -10 -2 -5 -5 5 -9 14 -9 20 0 8 -24 12 -78 11 -55 -1
-77 2 -77 11 0 13 -78 14 -98 1 -6 -3 -13 -2 -16 3 -7 10 -376 9 -393 -2 -8
-5 -13 -4 -13 2 0 10 -31 8 -49 -3 -5 -4 -11 0 -14 6 -3 9 -7 8 -12 -4z m235
-177 c0 -5 7 -12 16 -15 13 -5 14 -3 6 7 -16 19 26 20 45 1 8 -7 19 -14 26
-14 6 0 2 6 -9 14 -17 13 -15 14 28 13 26 0 46 -5 45 -10 -1 -5 41 -10 93 -11
52 -1 101 -5 108 -10 7 -4 19 -3 27 4 12 10 15 9 15 -3 0 -8 7 -17 15 -21 8
-3 15 -1 15 4 0 16 22 11 35 -7 8 -11 28 -18 51 -19 102 -4 100 -4 84 -15 -12
-8 -12 -10 5 -8 11 1 23 1 28 0 4 0 10 -1 13 0 4 0 10 -5 15 -12 7 -11 33 -18
82 -20 9 0 17 -5 17 -10 0 -6 4 -8 9 -4 6 3 14 -3 20 -13 5 -9 19 -18 31 -19
24 -2 90 -31 90 -39 0 -3 -6 -2 -12 1 -7 4 -5 0 4 -8 10 -8 14 -18 10 -23 -4
-4 0 -3 8 3 11 9 19 8 32 -1 10 -7 15 -16 11 -19 -3 -4 -2 -7 3 -8 28 -2 45
-9 60 -23 8 -9 19 -14 23 -11 5 2 17 -5 27 -18 12 -13 13 -17 3 -9 -13 9 -16
9 -16 -3 0 -8 3 -13 6 -11 12 7 52 -14 46 -24 -9 -14 8 -12 24 3 11 10 13 10
7 0 -4 -8 -2 -13 6 -13 8 0 26 -14 41 -31 14 -17 31 -28 37 -24 5 3 10 0 10
-8 0 -9 10 -13 30 -12 22 1 29 -2 26 -12 -3 -7 1 -13 9 -13 8 0 15 -7 15 -15
0 -9 6 -12 16 -8 9 3 20 0 25 -8 8 -12 11 -12 19 1 8 13 10 12 10 -2 0 -10 7
-18 15 -18 8 0 15 -8 16 -17 0 -11 3 -13 6 -6 5 14 35 2 61 -24 8 -7 17 -11
22 -8 5 3 10 1 12 -5 2 -6 12 -12 23 -14 28 -6 83 -36 66 -36 -25 0 -1 -14 27
-16 41 -2 44 -3 36 -16 -4 -6 -3 -8 4 -5 15 10 43 -3 35 -16 -4 -6 0 -8 10 -4
10 3 17 3 17 -1 0 -4 16 -7 35 -7 20 1 40 -4 46 -12 13 -15 33 -18 24 -3 -3 6
1 7 9 4 9 -3 16 -10 16 -15 0 -5 7 -9 15 -9 8 0 15 -3 15 -7 0 -5 25 -9 56
-10 31 0 61 -6 67 -12 6 -6 19 -11 29 -11 10 0 18 -6 18 -12 0 -9 3 -8 10 2 8
12 10 12 16 -3 3 -9 10 -14 15 -11 5 3 6 10 3 16 -4 5 5 2 20 -7 14 -10 26
-13 26 -9 0 5 6 2 13 -6 7 -9 19 -15 27 -14 8 0 26 -6 39 -14 13 -8 20 -9 17
-3 -4 6 -1 11 8 11 8 0 18 -5 22 -12 5 -7 2 -8 -7 -3 -8 5 -10 4 -6 0 10 -12
37 -15 37 -5 0 14 45 5 61 -12 17 -19 55 -25 44 -8 -11 18 4 11 26 -12 12 -13
19 -17 15 -10 -5 7 -1 12 9 12 9 0 13 -4 10 -10 -6 -10 4 -12 68 -12 24 0 35
-4 31 -10 -5 -7 -2 -8 6 -3 24 15 61 12 55 -3 -4 -12 6 -13 65 -8 40 4 70 3
70 -2 0 -5 20 -8 44 -7 24 1 50 -2 58 -7 10 -7 8 -8 -5 -4 -10 3 -16 2 -13 -3
7 -10 56 -9 74 2 6 5 12 4 12 0 0 -5 53 -9 118 -10 64 0 185 -2 267 -3 83 -1
152 -1 155 0 25 10 85 3 102 -12 20 -17 48 -14 48 6 0 7 3 7 8 -2 5 -7 19 -11
33 -10 l24 3 2 -750 c1 -439 -2 -757 -8 -767 -5 -9 -5 -19 -1 -22 5 -3 9 -26
10 -53 1 -35 -1 -43 -8 -28 -6 15 -9 16 -9 4 -1 -22 -31 -20 -31 2 0 12 -5 16
-15 13 -8 -3 -13 -11 -12 -17 1 -6 -8 -12 -19 -13 -12 0 -26 -4 -32 -8 -6 -3
-13 -2 -16 3 -4 5 2 12 11 14 10 3 7 4 -7 3 -14 -1 -32 -6 -40 -11 -22 -14
-51 -13 -57 1 -4 11 -9 10 -21 -3 -16 -15 -17 -15 -20 0 -2 9 -7 17 -12 17 -5
0 -7 -6 -5 -12 4 -10 -20 -13 -102 -12 -60 1 -112 3 -118 4 -5 1 -14 1 -20 0
-5 -2 -60 -3 -121 -5 -60 -1 -115 -5 -122 -9 -7 -4 -12 -4 -12 1 0 4 -16 8
-35 8 -25 1 -35 -4 -36 -15 0 -10 -3 -9 -9 5 -7 17 -9 17 -9 3 -1 -20 -21 -25
-21 -5 0 9 -3 8 -9 -2 -6 -9 -24 -12 -60 -10 -28 2 -51 1 -51 -3 0 -3 -25 -4
-56 -2 -37 3 -54 1 -49 -6 4 -6 -16 -10 -57 -11 -76 -1 -99 -5 -107 -18 -4 -6
-26 -9 -49 -8 -23 2 -42 -1 -42 -5 0 -5 -11 -6 -25 -4 -18 3 -25 0 -26 -12 0
-14 -2 -14 -8 2 -7 18 -8 18 -14 2 -5 -13 -16 -17 -37 -14 -19 2 -34 -3 -40
-12 -8 -12 -10 -12 -10 4 0 20 0 20 -16 0 -8 -10 -13 -13 -9 -6 8 16 -3 15
-21 -3 -8 -8 -21 -12 -29 -9 -10 4 -15 0 -16 -12 0 -12 -3 -14 -6 -6 -4 10 -8
10 -19 1 -8 -6 -14 -8 -14 -4 0 4 -6 2 -14 -4 -9 -8 -16 -8 -20 -2 -4 6 -20 2
-41 -10 -19 -11 -38 -18 -43 -15 -6 3 -22 -4 -38 -16 -20 -16 -29 -19 -32 -10
-3 10 -9 9 -23 -4 -10 -9 -25 -14 -34 -11 -9 4 -15 1 -15 -8 0 -10 -11 -15
-30 -16 -38 -2 -43 -3 -57 -12 -6 -4 -15 -2 -18 4 -5 7 -14 3 -27 -11 -12 -13
-26 -19 -38 -15 -13 4 -23 -1 -32 -14 -8 -14 -16 -17 -24 -10 -7 6 -16 4 -24
-6 -7 -8 -21 -15 -31 -15 -12 0 -16 -5 -13 -14 4 -11 0 -13 -15 -9 -12 3 -21
1 -21 -4 0 -5 -9 -9 -20 -10 -13 -1 -18 2 -14 9 4 7 2 8 -5 4 -6 -4 -9 -12 -6
-17 4 -5 0 -9 -8 -9 -8 0 -20 -7 -27 -15 -7 -9 -22 -14 -34 -13 -13 2 -20 -2
-18 -9 1 -8 -9 -13 -28 -13 -19 0 -33 -6 -37 -16 -3 -8 -12 -13 -20 -10 -8 3
-11 2 -8 -3 3 -5 1 -12 -5 -16 -5 -3 -10 -1 -10 5 0 7 -7 5 -16 -4 -8 -9 -20
-14 -25 -10 -5 3 -12 -2 -15 -10 -3 -9 -13 -16 -21 -16 -8 0 -11 -5 -8 -10 4
-6 -5 -10 -20 -10 -14 0 -28 -7 -31 -15 -4 -8 -11 -12 -17 -8 -6 4 -8 -2 -5
-15 4 -15 2 -19 -9 -15 -8 3 -21 -4 -29 -16 -9 -12 -20 -19 -25 -16 -5 4 -9 1
-9 -4 0 -6 -13 -11 -30 -11 -20 0 -28 -4 -24 -13 3 -8 -5 -13 -23 -15 -16 -1
-30 -7 -31 -12 -2 -6 -8 -8 -13 -4 -5 3 -9 0 -9 -6 0 -8 -9 -10 -25 -6 -15 4
-25 2 -25 -4 0 -6 6 -8 13 -5 6 4 3 -1 -7 -9 -16 -13 -22 -13 -28 -3 -5 8 -8
7 -8 -5 0 -11 -8 -18 -19 -18 -11 0 -23 -4 -26 -10 -4 -6 1 -7 12 -4 13 4 14
3 5 -4 -7 -5 -24 -7 -38 -4 -14 2 -24 0 -24 -7 0 -8 -5 -9 -19 -2 -17 9 -18 8
-14 -12 5 -22 5 -22 -11 -2 -10 13 -15 15 -14 5 3 -13 -2 -16 -38 -19 -8 0
-12 -5 -9 -11 3 -6 -4 -11 -17 -11 -13 -1 -30 -2 -38 -3 -8 -1 -20 -4 -26 -8
-6 -4 -26 -8 -45 -10 -19 -1 -40 -6 -48 -12 -7 -6 -50 -11 -95 -12 -101 -3
-98 -2 -92 -13 7 -10 -135 -9 -152 2 -8 5 -11 4 -10 -4 4 -14 -110 -20 -119
-5 -3 5 -1 6 5 2 7 -4 12 -3 12 2 0 14 -12 22 -24 15 -18 -12 -45 -13 -51 -3
-3 5 -12 7 -20 4 -8 -4 -18 1 -21 10 -4 10 -14 15 -30 12 -13 -3 -30 2 -38 10
-23 22 -28 16 -10 -11 9 -14 12 -25 6 -25 -6 0 -15 7 -20 16 -5 9 -12 15 -15
15 -32 -4 -67 1 -62 9 6 10 -22 14 -72 12 -13 -1 -23 3 -23 9 0 6 5 7 10 4 6
-3 10 -1 10 4 0 6 -16 11 -35 11 -19 0 -35 5 -35 10 0 6 -11 10 -25 10 -14 0
-25 4 -25 8 0 12 -78 44 -90 37 -5 -3 -10 1 -10 9 0 9 -4 16 -10 16 -5 0 -10
-5 -10 -10 0 -6 -10 -2 -22 9 -11 11 -26 17 -32 14 -6 -4 -2 6 8 22 l19 30
-21 -19 c-21 -18 -23 -18 -40 -3 -10 10 -26 17 -35 17 -9 0 -17 5 -17 10 0 6
-9 10 -19 10 -19 0 -35 25 -26 40 3 4 -2 10 -9 13 -8 3 -17 1 -20 -6 -2 -7 -5
-5 -5 5 -1 9 -6 20 -13 24 -7 5 -8 3 -3 -5 5 -9 2 -9 -13 0 -12 7 -19 15 -17
17 6 6 -28 41 -36 36 -4 -2 -11 5 -14 16 -5 16 -10 18 -19 11 -9 -8 -18 -6
-32 5 -10 8 -13 13 -6 9 6 -3 12 -1 12 4 0 6 -9 11 -19 11 -12 0 -21 9 -25 25
-4 14 -10 23 -15 20 -5 -2 -11 2 -15 10 -3 8 -13 15 -22 15 -10 0 -14 5 -11
14 3 8 -1 17 -9 20 -9 3 -13 10 -10 15 3 5 -2 8 -12 7 -9 0 -16 4 -15 11 2 7
-4 10 -13 6 -8 -3 -14 -2 -13 3 6 32 -3 53 -23 56 -17 2 -23 10 -23 28 -1 16
-6 24 -16 23 -8 -2 -20 6 -27 18 -12 19 -12 19 10 8 21 -11 22 -11 9 4 -7 10
-19 17 -26 17 -8 0 -10 9 -7 25 3 19 0 25 -12 25 -10 0 -15 4 -11 9 3 5 -3 12
-14 16 -13 4 -18 13 -16 27 3 11 2 18 -2 15 -3 -4 -12 1 -19 11 -8 11 -9 19
-2 23 16 10 0 29 -25 29 -16 0 -18 3 -9 9 11 7 11 9 -2 14 -9 4 -13 14 -11 26
2 11 -1 24 -7 27 -7 5 -8 2 -3 -6 6 -9 4 -11 -4 -6 -7 5 -10 13 -8 20 2 6 1
20 -4 31 -7 18 -8 18 -8 2 -1 -10 -5 -16 -10 -13 -5 3 -7 15 -4 26 3 11 0 27
-7 35 -10 12 -10 15 1 15 9 1 8 5 -5 15 -14 11 -16 15 -5 15 8 0 10 3 4 8 -17
12 -41 47 -27 38 6 -4 12 -3 12 3 0 5 -5 11 -11 13 -6 2 -12 20 -13 41 -1 23
-6 37 -14 37 -7 0 -11 4 -7 9 3 5 1 12 -4 15 -5 3 -7 22 -5 41 1 20 -1 33 -6
30 -5 -3 -9 3 -9 12 0 30 -7 67 -18 88 -14 28 -16 98 -2 89 8 -4 8 -1 1 13
-14 25 -13 353 1 353 5 0 3 8 -4 17 -10 11 -10 14 -2 9 8 -4 13 -2 14 6 0 7 1
40 2 73 2 40 7 60 15 60 12 0 13 2 11 28 0 10 -2 10 -6 0 -2 -7 -9 -13 -15
-13 -6 0 -5 7 3 16 7 9 14 25 16 37 2 11 9 27 15 35 7 8 13 26 14 41 3 59 4
62 15 55 8 -5 10 1 7 20 -3 16 0 33 9 42 8 8 11 14 7 14 -3 0 -1 7 6 15 6 8 9
19 6 24 -4 5 -2 12 3 16 6 3 7 13 4 22 -4 11 -3 14 5 9 7 -4 12 -2 12 3 0 6
-6 11 -12 12 -7 0 -2 6 12 12 14 7 26 19 28 27 2 8 8 17 13 18 5 2 9 10 9 17
0 7 6 15 14 18 9 4 12 14 9 26 -4 15 -1 21 10 21 9 0 19 5 23 12 5 8 2 9 -11
5 -17 -7 -17 -6 -1 18 9 14 14 25 11 25 -3 0 -1 9 5 20 6 11 17 20 25 20 8 0
15 9 15 19 0 10 7 21 15 25 8 3 15 9 14 13 -4 23 2 32 18 26 11 -4 14 -3 9 5
-5 8 0 12 13 12 21 0 46 32 34 44 -3 3 0 6 8 6 11 0 11 2 -1 10 -10 6 -11 10
-2 10 6 0 14 -1 15 -2 11 -8 34 25 30 41 -3 11 2 21 11 24 9 4 16 1 16 -6 0
-7 7 -3 15 7 8 10 12 23 9 27 -3 5 0 9 5 9 6 0 11 6 11 14 0 8 7 17 16 20 8 3
12 11 9 17 -4 6 0 9 11 7 12 -2 18 2 16 12 -1 10 3 9 14 -5 11 -13 15 -14 11
-5 -4 15 19 58 28 53 13 -7 23 -1 33 22 6 14 18 25 26 25 8 0 17 6 19 13 4 9
8 8 17 -3 10 -13 11 -13 6 2 -4 13 3 22 23 33 16 8 31 12 33 9 3 -2 11 4 19
13 13 16 12 17 -3 4 -26 -19 -22 -8 4 15 12 10 18 14 15 7 -4 -6 -3 -14 3 -18
5 -3 10 -1 10 6 0 18 40 48 55 42 9 -3 17 5 21 21 4 19 13 26 30 26 13 0 24 5
24 11 0 8 6 7 17 -2 14 -12 16 -12 11 2 -4 9 -1 16 7 16 7 0 11 -6 9 -12 -3
-6 2 -12 10 -12 8 0 12 6 9 13 -7 19 35 42 72 40 24 -1 31 2 24 10 -6 8 -1 11
19 10 15 -1 36 5 46 14 11 9 16 10 12 3 -4 -8 -1 -13 9 -13 9 0 13 5 10 10 -6
10 13 15 48 12 9 -1 17 4 17 12 0 8 9 13 23 12 12 -1 31 1 43 5 11 4 27 3 36
-2 11 -6 19 -5 24 2 4 7 3 9 -4 5 -6 -3 -13 -2 -16 3 -3 5 12 8 34 7 22 0 40
3 40 8 0 4 6 6 14 3 8 -3 29 -2 45 3 18 5 33 5 36 -1 4 -5 14 -8 23 -8 15 1
15 2 -1 6 -9 2 -15 9 -12 14 8 12 35 12 35 0z m1540 -2921 c0 -5 -5 -10 -11
-10 -5 0 -7 5 -4 10 3 6 8 10 11 10 2 0 4 -4 4 -10z"/>
<path d="M2627 5669 c7 -7 15 -10 18 -7 3 3 -2 9 -12 12 -14 6 -15 5 -6 -5z"/>
<path d="M1957 5543 c-4 -3 -7 -11 -7 -17 0 -6 5 -5 12 2 6 6 9 14 7 17 -3 3
-9 2 -12 -2z"/>
<path d="M2296 5478 c3 -4 11 -5 19 -1 8 3 15 1 15 -4 0 -4 -20 -9 -44 -9 -25
-1 -53 -5 -63 -9 -18 -8 -50 -15 -90 -18 -12 -1 -21 -6 -20 -12 1 -5 -4 -10
-10 -11 -7 -1 -16 -3 -20 -4 -5 -1 -18 -1 -30 0 -13 1 -30 -6 -39 -14 -8 -9
-20 -14 -24 -11 -5 3 -14 -3 -19 -14 -6 -10 -18 -21 -26 -25 -9 -3 -13 -2 -10
4 3 6 1 10 -5 10 -6 0 -13 -7 -17 -16 -3 -8 -12 -13 -19 -10 -7 3 -17 0 -21
-7 -11 -16 -49 -45 -40 -30 4 6 2 15 -4 19 -8 4 -9 3 -5 -4 4 -7 2 -12 -4 -12
-6 0 -8 -5 -4 -12 5 -8 0 -9 -14 -6 -12 4 -25 1 -29 -4 -3 -7 -1 -8 5 -4 7 4
12 2 12 -3 0 -6 -6 -11 -14 -11 -8 0 -17 -8 -19 -17 -4 -15 -5 -15 -6 2 -1 14
-4 16 -9 7 -5 -7 -21 -15 -36 -18 -15 -2 -25 -1 -22 4 2 4 1 14 -4 22 -7 11
-9 9 -9 -10 -1 -14 -1 -35 -1 -48 0 -16 -5 -22 -18 -20 -10 2 -16 -2 -14 -11
3 -12 1 -12 -14 0 -10 8 -15 9 -11 2 12 -19 -4 -45 -25 -40 -16 5 -17 3 -7 -9
10 -12 9 -13 -4 -9 -8 4 -18 1 -22 -4 -3 -6 -10 -9 -15 -6 -5 3 -11 1 -15 -5
-3 -5 -1 -10 4 -10 20 0 11 -19 -11 -26 -13 -5 -26 -7 -29 -6 -4 1 -5 -8 -2
-18 3 -11 1 -20 -5 -20 -12 0 -67 -48 -67 -58 -1 -19 -28 -53 -39 -49 -8 3
-11 -8 -10 -37 2 -83 3 -86 32 -97 15 -5 34 -19 43 -31 12 -16 18 -18 24 -8 5
9 4 11 -3 6 -7 -4 -12 -2 -12 3 0 10 6 12 43 15 6 1 21 10 32 21 11 12 17 16
13 11 -14 -18 -8 -28 7 -12 8 8 15 21 15 29 0 8 10 22 22 33 12 10 18 13 14 7
-4 -7 -2 -13 3 -13 6 0 11 7 11 15 0 17 35 55 50 55 5 0 9 6 7 13 -1 6 4 11
11 10 14 -3 17 14 2 19 -5 2 2 8 15 15 14 6 23 8 20 4 -2 -4 2 -8 10 -8 8 0
14 3 13 6 0 3 0 15 2 26 l1 20 9 -20 c7 -16 9 -16 9 -4 1 9 8 19 16 23 8 3 15
13 15 22 0 14 2 15 17 3 14 -12 16 -12 12 1 -3 8 3 24 14 34 17 16 19 17 14 3
-4 -11 -1 -17 9 -17 8 0 12 5 9 10 -3 6 1 13 10 16 13 6 14 8 3 15 -9 6 -7 9
10 10 39 3 41 4 58 27 12 18 24 23 47 20 24 -2 34 2 42 19 9 18 14 20 24 10
10 -9 11 -8 6 5 -6 14 -2 18 16 18 13 1 37 1 53 1 19 1 30 7 33 19 4 15 10 17
29 10 18 -7 24 -6 24 5 0 8 6 12 14 9 8 -3 23 5 35 17 17 19 23 21 34 9 10
-10 9 -11 -2 -5 -10 6 -12 4 -7 -4 6 -9 12 -9 25 3 10 9 24 16 32 16 12 0 11
2 -1 11 -11 8 -6 9 23 5 27 -3 36 -1 31 7 -3 7 2 3 10 -7 9 -11 18 -17 21 -14
3 3 -5 16 -17 30 -30 33 -32 47 -11 70 16 17 16 18 0 12 -20 -7 -22 6 -4 25 6
7 8 12 2 11 -5 -2 -21 -2 -35 -1 -20 1 -22 3 -10 11 13 8 12 10 -2 10 -10 0
-18 7 -18 15 0 10 -9 14 -24 13 -14 -1 -22 -6 -20 -10z m-606 -268 c0 -5 -2
-10 -4 -10 -3 0 -8 5 -11 10 -3 6 -1 10 4 10 6 0 11 -4 11 -10z m331 -43 c-10
-9 -11 -8 -5 6 3 10 9 15 12 12 3 -3 0 -11 -7 -18z"/>
<path d="M2455 5379 c-4 -6 -5 -12 -2 -15 2 -3 7 2 10 11 7 17 1 20 -8 4z"/>
<path d="M1645 5320 c3 -5 8 -10 11 -10 2 0 4 5 4 10 0 6 -5 10 -11 10 -5 0
-7 -4 -4 -10z"/>
<path d="M2245 5179 c-4 -6 -5 -12 -2 -15 2 -3 7 2 10 11 7 17 1 20 -8 4z"/>
<path d="M1960 5140 c0 -5 7 -7 15 -4 8 4 15 8 15 10 0 2 -7 4 -15 4 -8 0 -15
-4 -15 -10z"/>
<path d="M1386 4944 c-5 -14 -4 -15 9 -4 17 14 19 20 6 20 -5 0 -12 -7 -15
-16z"/>
<path d="M4350 4922 c0 -5 7 -9 15 -9 8 0 15 4 15 9 0 4 -7 8 -15 8 -8 0 -15
-4 -15 -8z"/>
<path d="M1185 4889 c-4 -6 -4 -13 -1 -16 3 -4 6 -1 6 6 0 8 6 11 16 7 8 -3
12 -2 9 4 -8 13 -22 13 -30 -1z"/>
<path d="M1577 4833 c-4 -3 -7 -11 -7 -17 0 -6 5 -5 12 2 6 6 9 14 7 17 -3 3
-9 2 -12 -2z"/>
<path d="M5300 4742 c0 -5 9 -8 20 -7 29 2 33 10 5 13 -14 1 -25 -2 -25 -6z"/>
<path d="M1271 4731 c-7 -5 -12 -12 -10 -16 1 -4 -4 -15 -11 -26 -10 -13 -17
-15 -27 -8 -9 8 -11 6 -8 -9 5 -27 -5 -63 -16 -56 -5 3 -9 -4 -9 -15 0 -12 -4
-21 -10 -21 -5 0 -10 -7 -10 -16 0 -9 -7 -22 -15 -28 -8 -6 -16 -24 -17 -41
-1 -16 -9 -36 -18 -43 -13 -12 -13 -13 3 -8 21 7 22 -1 2 -20 -8 -9 -15 -29
-15 -45 0 -18 -4 -28 -10 -24 -8 5 -15 -22 -11 -47 0 -4 -3 -18 -9 -32 -6 -17
-5 -26 3 -30 8 -3 6 -8 -5 -16 -14 -9 -18 -25 -18 -80 0 -43 -4 -70 -12 -72
-13 -5 -19 -183 -7 -209 4 -8 4 -21 -1 -29 -5 -8 -5 -21 1 -31 5 -10 5 -20 1
-23 -10 -6 -8 -74 3 -84 5 -4 5 -2 1 5 -3 6 -3 14 2 17 4 2 9 -4 9 -15 1 -10
-4 -19 -10 -19 -8 0 -7 -3 2 -9 8 -5 14 -23 15 -40 0 -17 6 -29 11 -27 7 2 10
-17 10 -50 0 -34 5 -56 13 -59 17 -6 15 -35 -4 -35 -8 0 -12 -5 -9 -10 4 -6
11 -8 16 -5 5 4 9 -5 9 -19 0 -14 3 -26 8 -26 12 0 34 -54 22 -58 -5 -2 -10
-8 -10 -14 0 -6 7 -8 15 -4 15 5 20 -8 17 -49 -2 -16 0 -17 7 -5 8 12 11 12
17 -4 4 -10 7 -30 8 -45 1 -15 6 -25 13 -24 7 2 12 0 12 -5 -3 -19 2 -25 11
-12 7 11 8 6 5 -18 -3 -24 1 -35 13 -40 25 -9 37 -24 40 -52 2 -14 8 -26 13
-28 5 -2 9 -10 9 -18 0 -9 4 -13 9 -10 4 3 13 -6 19 -19 7 -14 17 -25 23 -25
6 0 8 -7 5 -16 -6 -15 -4 -15 10 -3 14 11 16 10 14 -6 -1 -11 -2 -27 -1 -35 1
-13 2 -13 11 0 8 13 10 12 10 -3 0 -10 7 -25 15 -33 8 -9 15 -12 15 -8 0 3 7
1 15 -6 9 -7 14 -19 11 -27 -3 -8 -1 -11 4 -8 6 4 14 -4 19 -17 4 -13 12 -23
17 -23 5 0 8 -3 7 -7 -2 -4 6 -10 17 -13 11 -4 18 -11 15 -16 -4 -5 1 -9 9 -9
9 0 16 -7 16 -16 0 -8 4 -13 9 -10 5 3 12 -2 15 -11 6 -15 8 -15 17 -3 9 13
10 13 8 0 -2 -25 1 -40 9 -39 24 4 42 -3 42 -17 0 -8 4 -13 9 -10 5 3 12 -1
15 -10 4 -11 13 -13 27 -9 18 6 21 4 16 -9 -5 -11 -1 -16 13 -16 11 0 20 -7
20 -15 0 -8 5 -15 11 -15 5 0 7 5 4 10 -9 15 11 12 24 -3 6 -8 7 -17 3 -22 -4
-4 3 -6 15 -3 13 4 27 0 34 -8 6 -8 18 -14 26 -14 7 0 16 -7 20 -16 3 -8 12
-13 19 -10 9 3 14 -2 14 -13 0 -14 7 -17 30 -16 17 1 33 -2 36 -7 3 -4 0 -8
-7 -8 -7 0 -10 -2 -7 -5 8 -9 38 6 32 16 -3 5 3 6 12 2 11 -4 13 -8 6 -11 -25
-8 -10 -18 28 -17 28 0 39 -3 36 -12 -3 -8 4 -11 25 -8 19 2 32 -1 35 -10 3
-7 12 -16 20 -19 9 -4 12 -2 8 5 -4 7 1 7 16 -1 12 -6 33 -9 46 -6 17 5 22 3
18 -7 -5 -15 33 -21 42 -6 4 6 10 6 19 -1 7 -6 19 -9 26 -8 8 2 13 -2 12 -8
-1 -6 4 -11 12 -11 8 0 12 3 10 7 -2 4 2 7 10 7 8 0 12 -4 9 -9 -3 -4 12 -8
33 -9 169 -4 223 -3 223 2 0 7 157 1 178 -6 7 -3 16 5 21 17 5 14 17 22 34 22
14 1 23 -2 21 -6 -3 -4 -1 -8 5 -8 5 0 11 5 13 12 4 10 47 19 102 19 10 0 25
7 33 15 10 10 26 13 47 10 17 -3 25 -3 19 0 -18 8 -16 25 2 18 8 -4 21 -2 28
4 6 5 23 8 36 6 14 -3 22 -1 18 2 -10 10 63 46 79 40 8 -3 14 1 14 8 0 23 25
37 40 23 8 -8 11 -8 6 0 -6 11 48 36 58 26 3 -3 3 4 1 17 -4 19 -2 20 12 8 12
-9 15 -9 9 0 -4 7 -1 12 9 12 9 0 26 11 38 23 12 13 36 28 52 34 17 5 30 16
30 24 0 9 9 13 25 12 14 -1 20 0 13 3 -8 4 -8 12 2 31 7 14 11 33 7 42 -5 14
-4 14 14 1 18 -14 18 -14 2 6 -10 11 -18 31 -18 43 0 12 -4 20 -9 17 -5 -3
-11 1 -15 9 -4 11 -23 15 -78 15 -44 0 -68 -4 -60 -9 11 -6 8 -10 -10 -14 -12
-4 -31 -19 -41 -34 -11 -16 -16 -20 -12 -9 6 19 5 19 -13 3 -10 -9 -24 -17
-31 -17 -7 0 -9 -5 -6 -11 4 -6 0 -9 -11 -7 -11 2 -18 -2 -16 -9 1 -7 -3 -13
-10 -13 -6 0 -20 -7 -30 -16 -16 -15 -18 -15 -24 0 -3 9 -11 13 -16 10 -6 -4
-5 -10 3 -14 19 -12 -6 -39 -30 -33 -10 2 -25 -3 -34 -11 -8 -9 -29 -16 -45
-16 -17 0 -32 -6 -36 -15 -4 -11 -18 -14 -56 -12 -46 3 -67 -6 -38 -15 7 -3 2
-7 -10 -10 -15 -4 -20 -3 -15 5 4 8 1 7 -9 -1 -8 -7 -22 -10 -31 -6 -8 3 -18
0 -23 -7 -5 -9 -2 -10 10 -6 9 4 15 3 12 -2 -8 -13 -57 -11 -49 3 3 6 0 6 -8
-1 -7 -7 -24 -13 -39 -13 -20 0 -22 -2 -10 -10 9 -6 10 -10 3 -10 -6 0 -15 5
-18 10 -3 6 -12 10 -18 10 -7 0 -6 -4 3 -9 9 -7 -15 -10 -70 -11 -47 0 -124
-1 -173 -3 -64 -1 -87 1 -87 11 0 11 -19 13 -123 14 -17 1 -26 5 -24 12 3 7
-7 12 -24 12 -19 1 -27 -2 -22 -10 3 -6 0 -6 -8 2 -7 6 -21 12 -31 12 -10 0
-18 6 -18 13 0 8 -4 7 -10 -3 -8 -13 -14 -8 -12 11 1 3 -10 5 -24 3 -15 -1
-28 4 -31 12 -3 8 -19 14 -38 14 -19 0 -35 6 -38 14 -4 9 -14 12 -26 9 -15 -4
-21 -1 -21 12 0 15 -2 15 -16 5 -12 -11 -15 -11 -12 1 2 8 -2 13 -9 12 -8 -2
-10 4 -6 15 6 15 4 15 -9 4 -14 -11 -18 -10 -28 7 -6 12 -16 21 -23 21 -7 0
-6 -4 3 -10 9 -6 10 -10 3 -10 -6 0 -18 9 -26 21 -11 15 -16 17 -20 7 -3 -8
-6 -6 -6 6 -1 12 -6 16 -16 12 -8 -3 -15 -1 -15 4 0 6 -7 10 -16 10 -8 0 -12
5 -9 10 3 6 -1 13 -9 16 -9 3 -16 13 -16 21 0 8 -5 11 -10 8 -6 -4 -7 -11 -4
-17 4 -7 2 -8 -4 -4 -6 4 -9 13 -6 20 3 8 0 17 -7 22 -8 5 -10 3 -5 -7 5 -8 2
-8 -6 2 -7 9 -19 14 -26 12 -7 -3 -10 1 -6 11 4 12 2 15 -9 10 -8 -3 -18 0
-22 5 -3 6 -10 9 -14 7 -4 -3 -7 8 -6 25 1 16 -3 33 -8 36 -6 3 -7 1 -3 -5 5
-8 -1 -12 -15 -12 -12 0 -19 3 -16 6 3 4 2 15 -3 25 -7 12 -7 20 0 24 6 4 8
11 4 16 -3 6 -12 3 -21 -8 -8 -10 -12 -13 -9 -6 4 6 -3 15 -15 18 -15 5 -19
13 -16 27 5 16 3 17 -11 6 -11 -9 -14 -9 -9 -1 5 7 -1 21 -13 33 -11 11 -20
23 -20 26 0 4 -8 13 -17 20 -17 13 -17 14 2 8 16 -5 17 -4 5 4 -8 6 -18 8 -23
5 -12 -7 -36 28 -37 55 0 14 -6 22 -17 22 -9 0 -13 3 -10 7 4 3 0 11 -9 18 -9
6 -17 26 -17 43 -1 19 -7 32 -15 32 -7 0 -11 4 -7 9 3 5 -1 15 -8 23 -8 7 -12
19 -9 26 2 6 -1 12 -7 12 -7 0 -9 11 -7 25 3 17 0 25 -10 25 -14 0 -18 11 -14
44 1 13 -2 16 -12 10 -10 -6 -10 -4 1 9 12 15 11 17 -5 18 -11 0 -13 3 -7 6 9
3 10 10 4 21 -5 9 -7 25 -6 35 2 9 -1 15 -6 11 -5 -3 -10 3 -10 13 -1 10 -3
34 -5 53 -3 19 -5 42 -6 50 0 8 -6 21 -12 29 -8 11 -8 13 1 8 6 -4 15 -2 19 4
4 8 3 9 -4 5 -6 -3 -16 3 -22 14 -6 11 -7 20 -2 20 4 0 7 21 5 48 -9 120 -4
270 9 278 4 3 8 13 7 22 0 14 -2 13 -9 -3 -6 -14 -9 -15 -9 -4 -1 8 4 20 11
27 6 6 12 34 12 62 1 34 5 50 14 50 7 0 12 6 11 13 -3 28 2 48 11 42 9 -6 13
11 13 58 0 9 5 17 11 17 6 0 13 12 14 27 1 14 8 34 16 42 7 9 11 22 9 28 -3 7
2 16 11 19 9 3 16 10 16 16 0 5 -5 6 -12 2 -7 -4 -8 -3 -4 4 4 7 15 12 24 12
13 0 14 2 4 9 -11 7 -11 9 0 13 8 3 12 19 11 39 -1 19 -2 42 -2 52 -1 9 -7 16
-13 15 -7 -2 -12 3 -10 10 1 6 -5 12 -14 12 -8 0 -12 5 -9 10 4 7 -6 10 -27 8
-19 -1 -38 1 -44 4 -5 4 -16 3 -23 -1z"/>
<path d="M3347 4703 c-3 -2 -16 -6 -31 -8 -14 -3 -37 -7 -50 -9 -46 -8 -196
-102 -196 -123 0 -6 -6 -18 -14 -25 -15 -16 -69 -118 -62 -118 3 0 -2 -19 -10
-42 -13 -37 -16 -123 -16 -573 0 -377 -4 -534 -12 -544 -8 -11 -8 -13 2 -7 9
5 12 -6 12 -47 l0 -55 225 1 c199 0 225 2 226 16 0 9 1 240 1 514 1 273 4 497
9 497 5 0 6 6 3 13 -7 18 29 57 53 57 48 0 48 1 49 -563 0 -485 2 -530 17
-539 9 -5 17 -5 17 -1 0 4 97 7 215 6 l216 -2 -3 39 c-1 22 1 42 4 46 4 3 3
16 -2 28 -4 13 -4 29 1 39 6 9 6 17 1 17 -4 0 -6 23 -2 50 4 28 3 53 -1 56 -5
3 -4 16 1 29 6 15 6 27 0 30 -6 3 -6 15 0 30 6 15 6 27 0 30 -6 3 -6 15 0 30
6 15 6 27 0 30 -7 4 -7 13 0 24 5 10 6 21 3 25 -10 9 -10 76 -1 76 5 0 4 8 -1
19 -6 10 -8 21 -5 24 8 7 8 126 1 133 -3 3 -1 19 3 35 5 17 5 29 0 29 -5 0 -7
6 -5 13 9 23 11 107 2 107 -4 0 -6 4 -3 9 3 4 6 32 7 60 3 61 29 102 53 82 10
-8 16 -9 21 -1 3 5 11 10 16 10 6 0 7 -4 4 -10 -3 -5 -1 -10 5 -10 6 0 8 -5 5
-10 -4 -6 -3 -16 2 -23 6 -7 9 -228 9 -524 -1 -334 2 -514 9 -516 14 -6 425
-6 439 -1 12 5 16 1107 3 1120 -4 4 -1 14 6 22 8 11 8 14 0 9 -6 -4 -14 -3
-18 3 -3 5 -2 10 2 10 5 0 9 9 9 20 0 11 -3 20 -6 20 -3 0 -7 11 -8 26 -1 14
-6 34 -12 44 -5 10 -10 29 -10 41 0 12 -3 19 -6 16 -4 -4 -17 15 -29 41 -12
26 -41 63 -65 82 -24 19 -49 41 -57 49 -9 8 -25 16 -37 17 -21 2 -61 11 -61
14 0 11 -186 19 -206 9 -9 -5 -31 -10 -50 -12 -42 -4 -138 -52 -146 -72 -3 -8
-9 -12 -14 -9 -5 3 -9 -2 -9 -11 0 -9 -4 -13 -10 -10 -5 3 -10 1 -10 -6 0 -6
-11 -22 -25 -35 -14 -13 -25 -28 -25 -33 0 -6 -7 -8 -15 -5 -8 4 -15 10 -15
15 0 10 -33 51 -66 83 -24 23 -117 75 -146 82 -10 2 -28 7 -40 10 -29 7 -146
13 -151 7z"/>
<path d="M2670 4673 c0 -5 -103 -9 -230 -9 -158 -1 -234 -5 -244 -13 -8 -6
-18 -11 -22 -10 -5 1 -22 -4 -39 -11 -16 -7 -36 -14 -42 -16 -7 -1 -20 -9 -29
-18 -8 -9 -19 -16 -23 -16 -7 0 -58 -49 -91 -89 -21 -25 -57 -113 -62 -153 -2
-12 -7 -29 -11 -35 -5 -8 -3 -13 4 -13 8 0 8 -4 -1 -15 -10 -12 -13 -91 -12
-343 0 -311 2 -357 18 -409 4 -16 2 -23 -7 -23 -11 0 -11 -2 -2 -8 7 -4 14
-18 16 -30 2 -12 6 -25 10 -28 4 -4 7 -15 7 -25 0 -10 7 -25 16 -33 8 -9 13
-16 10 -16 -3 0 6 -16 19 -36 28 -42 109 -106 120 -96 5 4 5 -1 2 -11 -4 -11
-3 -16 3 -12 9 6 123 -30 145 -45 13 -9 515 -10 516 -1 1 3 2 102 3 219 1 206
1 212 -19 213 -11 0 -92 2 -180 4 -88 2 -169 5 -180 8 -11 3 -23 6 -27 6 -9 1
-21 40 -22 67 0 12 8 30 18 39 16 16 38 19 170 20 84 1 158 5 164 9 7 4 12 2
12 -5 0 -8 3 -9 13 0 8 6 16 9 19 6 2 -2 5 46 6 108 2 61 3 117 3 122 3 42 -6
105 -15 106 -6 0 -81 1 -168 3 -136 3 -159 5 -175 21 -10 10 -17 20 -16 22 1
1 0 9 -3 17 -3 8 -1 23 5 33 12 23 88 56 97 42 3 -5 10 -6 16 -3 16 10 192 11
205 1 7 -5 18 -5 25 -1 7 5 21 7 31 6 21 -4 19 -17 21 231 1 177 -1 200 -16
214 -14 13 -18 13 -18 3 0 -11 -3 -11 -12 -2 -14 14 -28 16 -28 5z"/>
<path d="M4848 4669 c-17 -9 -18 -58 -18 -764 l0 -755 213 1 c116 1 219 3 228
5 14 4 16 23 17 122 0 64 1 122 2 127 2 6 2 14 1 19 -2 11 -3 213 -2 356 1 63
0 136 -2 163 -1 27 2 47 8 47 6 0 7 3 0 8 -12 9 -13 192 -1 192 5 0 4 6 -2 13
-20 24 4 42 60 43 29 0 59 -4 66 -9 7 -6 15 -7 19 -4 7 7 59 -18 69 -34 4 -6
10 -27 14 -46 7 -31 4 -38 -29 -73 -21 -22 -35 -43 -32 -47 3 -3 2 -4 -4 -1
-5 3 -32 2 -59 -1 l-48 -6 -1 -195 c0 -178 5 -236 22 -250 14 -12 41 -82 35
-92 -4 -7 -2 -8 4 -4 7 4 14 -4 18 -20 4 -15 19 -52 35 -82 15 -31 26 -59 23
-63 -2 -4 3 -9 11 -13 8 -3 15 -13 15 -22 0 -10 12 -43 27 -74 l26 -56 238 -1
c189 0 239 3 243 14 3 7 1 13 -4 13 -6 0 -10 5 -10 12 0 6 -15 44 -34 82 -18
39 -42 96 -52 126 -10 30 -21 57 -24 60 -8 7 -33 62 -36 78 -1 8 -14 37 -27
66 -14 29 -31 73 -38 97 -7 24 -20 49 -29 56 -10 8 -11 12 -2 13 6 0 12 7 12
16 0 8 4 13 8 10 5 -3 15 4 22 15 8 10 19 19 25 19 6 0 19 16 29 35 11 19 24
35 29 35 6 0 7 3 4 6 -4 4 2 19 12 33 10 14 19 28 19 31 1 3 3 12 6 20 38 100
40 251 4 337 -6 16 -12 31 -13 36 -2 4 -4 9 -5 12 -1 3 -3 8 -5 13 -7 26 -19
41 -28 35 -6 -3 -7 -1 -3 5 4 6 -1 21 -11 33 -33 40 -93 101 -93 94 0 -3 -21
10 -46 30 -26 19 -55 35 -65 35 -11 0 -19 3 -19 8 0 4 -11 8 -25 10 -14 1 -36
3 -50 5 -14 1 -25 6 -25 10 0 4 -15 8 -32 7 -190 0 -637 8 -653 13 -11 3 -28
2 -37 -4z"/>
<path d="M1395 4470 c3 -5 8 -10 11 -10 2 0 4 5 4 10 0 6 -5 10 -11 10 -5 0
-7 -4 -4 -10z"/>
<path d="M1419 4383 c-13 -16 -12 -17 4 -4 9 7 17 15 17 17 0 8 -8 3 -21 -13z"/>
<path d="M1396 4293 c-6 -14 -5 -15 5 -6 7 7 10 15 7 18 -3 3 -9 -2 -12 -12z"/>
<path d="M970 4060 c0 -5 5 -10 11 -10 5 0 7 5 4 10 -3 6 -8 10 -11 10 -2 0
-4 -4 -4 -10z"/>
<path d="M973 4033 c4 -3 1 -13 -6 -22 -11 -14 -10 -14 5 -2 16 12 16 31 1 31
-4 0 -3 -3 0 -7z"/>
<path d="M973 3988 c-4 -7 -8 -29 -8 -49 -1 -27 3 -35 12 -32 9 3 10 10 5 17
-11 13 -10 45 2 64 4 6 5 12 2 12 -3 0 -8 -6 -13 -12z"/>
<path d="M1434 3278 c-4 -6 -3 -8 4 -4 6 3 13 -2 15 -11 4 -14 5 -13 6 5 1 23
-13 30 -25 10z"/>
<path d="M1096 3267 c3 -10 9 -15 12 -12 3 3 0 11 -7 18 -10 9 -11 8 -5 -6z"/>
<path d="M5980 3096 c0 -2 9 -6 20 -9 11 -3 20 -1 20 4 0 5 -9 9 -20 9 -11 0
-20 -2 -20 -4z"/>
<path d="M5236 3072 c-3 -4 4 -9 15 -9 23 -2 25 3 4 10 -8 4 -16 3 -19 -1z"/>
<path d="M4885 3020 c3 -5 11 -10 16 -10 6 0 7 5 4 10 -3 6 -11 10 -16 10 -6
0 -7 -4 -4 -10z"/>
<path d="M1680 2920 c0 -6 7 -10 15 -10 8 0 15 2 15 4 0 2 -7 6 -15 10 -8 3
-15 1 -15 -4z"/>
<path d="M1320 2861 c0 -6 4 -13 10 -16 6 -3 7 1 4 9 -7 18 -14 21 -14 7z"/>
<path d="M3655 2860 c3 -5 8 -10 11 -10 2 0 4 5 4 10 0 6 -5 10 -11 10 -5 0
-7 -4 -4 -10z"/>
<path d="M2245 2660 c3 -5 11 -10 16 -10 6 0 7 5 4 10 -3 6 -11 10 -16 10 -6
0 -7 -4 -4 -10z"/>
<path d="M3476 2522 c-3 -5 1 -9 9 -9 8 0 12 4 9 9 -3 4 -7 8 -9 8 -2 0 -6 -4
-9 -8z"/>
<path d="M3256 2465 c-3 -8 -1 -15 4 -15 6 0 10 7 10 15 0 8 -2 15 -4 15 -2 0
-6 -7 -10 -15z"/>
<path d="M1845 2409 c-4 -6 -4 -13 -1 -16 3 -4 6 -1 6 6 0 7 5 9 12 5 7 -4 8
-3 4 4 -9 15 -13 15 -21 1z"/>
<path d="M2340 2238 c0 -4 4 -8 9 -8 6 0 12 4 15 8 3 5 -1 9 -9 9 -8 0 -15 -4
-15 -9z"/>
<path d="M2677 2233 c-10 -9 -9 -23 1 -23 5 0 9 7 9 15 0 17 -1 18 -10 8z"/>
<path d="M7169 4680 c-1 -3 -1 -8 0 -12 0 -5 -6 -9 -14 -9 -28 -3 -33 -4 -41
-11 -4 -4 -1 -14 6 -23 7 -8 8 -15 3 -15 -9 0 -12 -10 -14 -42 -1 -23 7 -46
20 -62 7 -9 11 -22 8 -29 -5 -15 13 -54 28 -59 8 -2 8 -31 2 -72 -1 -5 13 -10
31 -11 23 -2 32 2 28 11 -3 7 2 15 10 18 8 3 14 1 14 -5 0 -6 5 -7 10 -4 6 4
8 11 5 16 -6 9 5 11 53 12 13 0 22 6 22 16 0 14 2 14 10 1 5 -8 10 -13 11 -10
0 3 2 13 4 23 2 9 -1 17 -7 17 -7 0 -6 5 1 14 10 11 8 16 -7 20 -15 5 -18 14
-16 37 2 19 -1 32 -11 35 -8 4 -12 10 -9 16 3 5 -2 15 -11 22 -10 7 -17 25
-17 40 0 15 -3 25 -5 22 -3 -3 -14 4 -26 14 -11 11 -25 16 -30 13 -6 -4 -8 0
-5 8 4 10 -3 14 -23 14 -16 0 -30 -2 -30 -5z"/>
<path d="M6858 4665 c-2 -2 -24 -5 -49 -6 -25 -1 -51 -8 -57 -16 -7 -7 -11
-13 -8 -13 2 0 1 -12 -3 -27 -5 -16 -5 -37 -1 -48 4 -11 3 -27 -3 -35 -6 -8
-8 -12 -3 -8 11 9 59 -40 53 -55 -2 -7 0 -20 5 -29 5 -12 5 -18 -1 -18 -13 0
-3 -29 16 -52 8 -9 12 -22 8 -27 -3 -6 1 -14 10 -17 9 -4 14 -13 11 -20 -3 -7
-1 -16 4 -19 5 -3 7 -14 5 -25 -2 -12 0 -18 6 -15 8 6 10 1 13 -33 1 -7 8 -17
16 -22 13 -9 13 -10 0 -10 -13 0 -13 -2 -1 -9 9 -6 14 -24 13 -45 -1 -27 2
-34 13 -29 8 3 15 0 15 -7 0 -9 3 -10 13 -1 8 6 18 7 22 3 5 -4 5 -1 1 5 -4 7
0 23 10 35 12 17 15 18 10 5 -3 -11 -2 -16 4 -12 6 3 10 15 10 26 0 10 5 19
11 19 6 0 8 7 5 15 -4 11 0 15 12 13 9 -2 16 3 14 10 -1 6 5 12 15 12 9 0 13
3 10 7 -4 3 -2 12 4 20 9 10 8 13 -2 13 -11 0 -11 2 1 10 12 8 12 10 -3 16
-10 4 -16 13 -13 20 3 7 -1 20 -9 28 -8 7 -11 16 -8 20 4 3 2 6 -4 6 -6 0 -10
8 -10 18 0 46 -4 63 -13 57 -10 -6 -12 4 -13 53 -1 12 -5 22 -10 22 -5 0 -7 7
-4 15 4 8 1 17 -5 21 -7 4 -8 3 -4 -4 4 -7 4 -12 1 -12 -9 0 -29 62 -29 88 1
15 -4 22 -18 22 -11 0 -17 4 -14 9 5 8 -38 33 -46 26z"/>
<path d="M6716 3288 c3 -4 9 -8 15 -8 5 0 9 4 9 8 0 5 -7 9 -15 9 -8 0 -12 -4
-9 -9z"/>
<path d="M4655 2720 c-7 -12 -7 -12 23 -15 27 -3 28 1 3 15 -13 7 -22 7 -26 0z"/>
<path d="M4710 2720 c0 -5 5 -10 11 -10 5 0 7 5 4 10 -3 6 -8 10 -11 10 -2 0
-4 -4 -4 -10z"/>
</g>
</svg>
