<?xml version="1.0" encoding="utf-8"?>
<!-- Generator: Adobe Illustrator 27.0.0, SVG Export Plug-In . SVG Version: 6.00 Build 0)  -->
<svg version="1.1" id="Capa_2_00000010268996703865005010000017917662841527702455_"
	 xmlns="http://www.w3.org/2000/svg" xmlns:xlink="http://www.w3.org/1999/xlink" x="0px" y="0px" viewBox="0 0 189.3 128.9"
	 style="enable-background:new 0 0 189.3 128.9;" xml:space="preserve">
<style type="text/css">
	.st0{fill:#FFFFFF;}
	.st1{fill:#293461;}
	.st2{fill:#293461;stroke:#293461;stroke-width:0.75;stroke-miterlimit:10;}
	.st3{fill:none;stroke:#293461;stroke-width:0.75;stroke-miterlimit:10;}
</style>
<path class="st0" d="M85.2,45c-0.4,5.2-0.9,10.5-3.6,14.9c-0.3,0.6-0.7,1.1-1.2,1.6c-0.1,0.1-0.1,0.1-0.2,0.2
	c-2.9,3.4-7.6,5.5-11.7,3.9c-2.2-0.8-3.8-2.5-5.1-4.5c-0.1-0.2-0.2-0.4-0.4-0.6c-1.3-2.3-2.2-5.1-2.8-7.6c-1.5-5.6-3-11.6-0.9-17
	c3.7-9.5,20.9-14,25-2.5C85.8,37.1,85.6,41.1,85.2,45z"/>
<path class="st1" d="M84.9,45c-0.6,7.6-1.8,17.4-10.2,20.3c-4,1.4-7.8-0.1-10.2-3.5s-3.3-7.3-4.3-11.1c-1.7-6.7-2.5-14.4,3.2-19.4
	c3.6-3.2,8.9-5,13.7-3.9c2.6,0.6,4.9,2.1,6.2,4.5C85.6,35.7,85.2,40.6,84.9,45c0,0.5,0.7,0.5,0.8,0c0.5-6.5,0.6-15-6.6-17.9
	c-4.9-2-10.9-0.4-15,2.7c-2,1.5-3.7,3.5-4.7,5.8c-1.7,4.1-1.2,8.8-0.3,13c1.5,6.9,4.2,18.7,13.5,17.9c4.2-0.4,7.9-3.3,9.9-7
	c2.4-4.4,2.9-9.6,3.3-14.5C85.7,44.5,84.9,44.5,84.9,45L84.9,45z"/>
<path class="st2" d="M87.8,72.8c5.2,0.1,10.4,0.9,14.4,4.9c6.4,6.4,3.9,16.3,3.9,24.4c0,0.9,0,1.8-0.3,2.5c-0.7,1.7-2.8,2.4-4.7,2.4
	s-3.7-0.6-5.6-0.5c-3.5,0.1-6.8,2.6-7.9,5.9c-1,3.2-0.2,6.9-2,9.7c-1.1,1.7-2.9,2.7-4.7,3.6c-2.7,1.3-5.4,2.6-8.4,2.8
	s-6.2-0.9-7.8-3.4c-1-1.6-1.3-3.7-2-5.4c-1.1-2.7-3.5-4.8-6.2-5.8s-5.9-0.6-8.4,0.9c-1.5,0.9-2.8,2.2-4.4,3.1
	c-3.4,1.8-7.9,0.9-10.4-2c-1.1-1.3-1.8-3-2.3-4.7c-0.9-3.2-0.9-6.4-1-9.7c-0.1-7-1.6-15.3,3.5-21.1c5.8-6.5,16.5-6,24.3-6.5
	c8.2-0.5,16.5-0.8,24.7-0.9C84.3,72.8,86.1,72.8,87.8,72.8L87.8,72.8z"/>
<path class="st0" d="M87.8,89.6c-4.2,5.2-10.1,9.2-16.7,10.2c-6.6,1-13.9-1.5-17.7-7c-3.9-5.4-3.6-13.8,1.3-18.3
	c1.8-1.7,4.2-2.9,5.7-4.9c1.3-1.8,1.7-4.1,2.1-6.3c0.2-1,0.4-1.9,0.8-2.8c1.3,2.3,3,4.2,5.4,5.1c4.2,1.6,9-0.6,11.9-4.1
	c0.9,2.7,1.1,5.4,3,7.7c1.4,1.8,3.5,2.9,4.9,4.7C92.6,79,91.7,84.7,87.8,89.6z"/>
<path class="st1" d="M87.5,89.3c-6.5,8-17.3,13.1-27.3,8.6c-4.4-2-7.8-5.7-8.8-10.4s0.2-9.6,3.7-12.8c2-1.8,4.6-3.1,6-5.6
	c1.5-2.6,1.5-5.7,2.5-8.5l-0.7,0.1c1.8,3.1,4.5,5.6,8.2,5.8s7.3-1.9,9.6-4.7l-0.6-0.2c0.8,2.3,1.1,4.9,2.5,7.1s3.6,3.3,5.2,5.2
	c1.8,2.1,3,4.8,2.9,7.6S89.3,87.1,87.5,89.3c-0.3,0.4,0.2,0.9,0.5,0.5c3.2-4.1,4.7-9.2,2.2-14c-1.3-2.5-3.5-4-5.5-5.9
	c-2.4-2.3-2.8-5.4-3.8-8.5c-0.1-0.2-0.4-0.4-0.6-0.2c-2.2,2.5-5.3,4.5-8.8,4.5s-6.3-2.5-8-5.5c-0.2-0.3-0.6-0.2-0.7,0.1
	c-1,2.9-1,6.3-2.8,8.9c-1.6,2.4-4.4,3.5-6.3,5.6c-3.1,3.3-4.1,8.1-3.2,12.5c2,10.1,13.2,14.7,22.5,12.5c6-1.4,11.1-5.2,15-9.9
	C88.3,89.5,87.8,89,87.5,89.3L87.5,89.3z"/>
<path class="st1" d="M54.7,41.9c-0.8-1.4-0.6-3.1-0.5-4.7c0.4-4.6,0.6-9.2,0.4-13.8c0-1.7-0.1-3.5,0.4-5.1c1-3.1,4.1-5.2,7.3-6
	c3.2-0.7,6.5-0.4,9.8,0c4.4,0.5,8.9,1,13.3,1.6c1.1,0.1,2.2,0.3,3.1,0.8c2.2,1.3,2.6,4.3,2.6,6.8c0,6.4-1.1,12.7-3.1,18.8
	c-0.3,0.8-0.6,1.7-1.3,2.3s-1.8,0.8-2.4,0.2c-0.5-0.5-0.6-1.2-0.7-1.9c-0.2-2.7-0.5-5.3-0.8-7.9c-0.1-1-0.2-2.1-0.8-2.9
	c-0.9-1.2-2.7-1.4-4.3-1.4c-3.1,0-6.2,0.2-9.2,0.7c-2.6,0.4-5.5,1.3-6.9,3.6c-1.5,2.6-0.5,5.7-1.5,8.4
	C59.3,43.7,56.2,44.6,54.7,41.9L54.7,41.9z"/>
<path class="st3" d="M0.4,0C0.3,3.3,2.3,6.3,5,8.2s6,2.6,9.2,3.1c13.2,1.9,26.4-0.6,39.3-3C60.3,7,67,5.7,73.7,5.1
	c6.1-0.6,13.3-1.2,19.3,0.3c2.6,0.6,5,2.1,6.4,4.3c3.4,5.7,1.8,14.5-1.1,20.1c-0.7,1.4-1.6,3-0.8,4.3c3.2,5.8,10.1-2.8,11.6-5.3
	c2.5-4.1,3.9-9.6,7.5-13c4.6-4.4,11.3-5.5,17.6-5.3c15,0.6,29.8,4,44.9,1.9c2.3-0.3,4.7-0.8,6.7-2.1s3.4-3.6,3-5.9"/>
</svg>
