<?xml version="1.0" standalone="no"?>
<!DOCTYPE svg PUBLIC "-//W3C//DTD SVG 20010904//EN"
 "http://www.w3.org/TR/2001/REC-SVG-20010904/DTD/svg10.dtd">
<svg version="1.0" xmlns="http://www.w3.org/2000/svg"
 width="80.000000pt" height="80.000000pt" viewBox="0 0 80.000000 80.000000"
 preserveAspectRatio="xMidYMid meet">
<metadata>
Created by potrace 1.11, written by Peter Selinger 2001-2013
</metadata>
<g transform="translate(0.000000,80.000000) scale(0.100000,-0.100000)"
fill="#000000" stroke="none">
<path d="M334 775 c-10 -15 -14 -36 -11 -53 5 -23 0 -29 -31 -44 -60 -29 -99
-97 -105 -183 -1 -16 -5 -34 -8 -40 -3 -5 -6 -24 -8 -42 -2 -30 17 -52 54 -59
6 -1 23 -7 38 -13 28 -11 28 -11 8 -32 -24 -26 -22 -42 12 -77 17 -18 25 -35
22 -50 -4 -23 27 -48 45 -37 14 9 12 -2 -5 -28 -33 -51 -5 -106 53 -105 47 0
79 36 62 68 -6 11 -8 20 -4 20 3 0 -4 8 -17 18 l-22 19 25 6 c28 7 42 39 26
55 -7 7 1 16 26 26 44 18 52 61 19 99 -17 18 -14 20 27 18 29 -1 65 23 56 38
-4 5 -2 13 4 16 10 6 5 92 -7 125 -3 8 -8 23 -9 33 -9 43 -57 97 -107 118 -20
8 -26 17 -21 28 11 29 10 56 -4 79 -21 33 -95 32 -118 -3z m101 -34 c3 -13 4
-26 0 -29 -3 -3 -5 0 -5 6 0 7 -7 12 -15 12 -8 0 -15 4 -15 10 0 5 -7 7 -15 4
-8 -4 -13 -10 -10 -14 3 -4 -2 -10 -9 -13 -19 -8 -18 32 1 54 19 22 60 4 68
-30z m-75 -84 c0 -6 18 -8 44 -5 48 6 64 -1 112 -44 36 -33 47 -63 46 -123 -1
-69 -1 -72 -11 -56 -5 8 -16 11 -26 7 -13 -5 -15 -9 -6 -20 9 -10 8 -15 -4
-20 -13 -5 -17 0 -14 20 0 4 -5 10 -13 15 -20 12 -28 -23 -9 -39 15 -11 15
-12 0 -6 -10 3 -20 1 -24 -5 -9 -16 -22 -13 -29 5 -6 15 -4 15 10 3 16 -13 16
-12 6 8 -10 18 -9 24 9 36 11 8 29 13 40 10 20 -6 27 13 7 19 -7 3 -3 12 10
24 21 19 21 23 7 51 -21 42 -73 66 -112 52 -14 -5 -32 -3 -49 6 -24 12 -31 12
-56 -3 -15 -9 -31 -25 -34 -37 -4 -11 -11 -23 -17 -26 -5 -4 -6 -12 -1 -20 5
-8 7 -22 6 -31 -2 -12 8 -20 35 -27 21 -6 44 -11 51 -11 6 0 12 -11 12 -25 0
-14 5 -25 10 -25 6 0 15 -11 20 -25 5 -14 15 -25 21 -25 8 0 7 6 -2 17 -9 11
-3 10 19 -6 48 -34 42 -36 -38 -16 -14 4 -30 7 -36 7 -6 1 -11 7 -11 15 0 9 4
10 11 3 15 -15 26 -12 26 6 0 8 -4 12 -10 9 -5 -3 -10 -1 -10 4 0 6 -7 11 -15
11 -8 0 -15 9 -15 19 0 10 -7 21 -15 25 -10 3 -15 -1 -15 -13 0 -26 -41 -52
-63 -39 -26 14 -21 31 7 24 32 -8 44 20 13 30 -12 5 -25 7 -29 6 -11 -3 -2 88
11 123 16 41 81 102 109 102 12 0 22 -4 22 -10z m3 -122 c7 -38 -1 -51 -31
-50 -53 0 -61 73 -11 86 29 7 35 3 42 -36z m111 12 c21 -21 14 -48 -17 -63
-51 -23 -99 40 -54 71 25 17 49 15 71 -8z m-87 -83 c-3 -3 -12 -4 -19 -1 -8 3
-5 6 6 6 11 1 17 -2 13 -5z m19 -61 c-3 -4 0 -13 7 -21 10 -13 9 -14 -10 -4
-12 7 -20 19 -18 29 2 10 4 23 5 28 0 6 5 2 11 -8 6 -10 8 -21 5 -24z m174
-25 c0 -5 -8 -5 -39 1 -2 1 2 8 9 16 11 13 15 13 21 3 5 -7 9 -16 9 -20z
m-240 -89 l33 -12 -26 -14 c-21 -11 -31 -11 -46 -1 -10 6 -17 18 -14 25 6 16
11 16 53 2z m100 -5 c31 -13 43 -14 54 -5 12 10 13 8 9 -9 -5 -18 -11 -21 -37
-16 -17 4 -32 11 -34 16 -2 6 -10 10 -17 10 -8 0 -17 5 -20 10 -8 14 -2 13 45
-6z m-4 -48 c24 -18 15 -27 -25 -28 -17 -1 -31 -6 -31 -12 0 -8 -3 -7 -8 0 -4
7 -18 14 -32 16 l-25 3 30 17 c37 21 65 22 91 4z m-22 -56 c-10 -4 -21 -6 -24
-3 -8 7 24 22 34 16 5 -4 1 -10 -10 -13z"/>
<path d="M316 531 c-3 -5 1 -11 9 -15 15 -6 29 7 18 18 -9 9 -21 8 -27 -3z"/>
<path d="M422 534 c3 -17 21 -21 26 -6 1 5 -4 12 -13 16 -11 4 -15 1 -13 -10z"/>
</g>
</svg>
