<?xml version="1.0" standalone="no"?>
<!DOCTYPE svg PUBLIC "-//W3C//DTD SVG 20010904//EN"
 "http://www.w3.org/TR/2001/REC-SVG-20010904/DTD/svg10.dtd">
<svg version="1.0" xmlns="http://www.w3.org/2000/svg"
 width="125.000000pt" height="125.000000pt" viewBox="0 0 125.000000 125.000000"
 preserveAspectRatio="xMidYMid meet">
<metadata>
Created by potrace 1.14, written by Peter Selinger 2001-2017
</metadata>
<g transform="translate(0.000000,125.000000) scale(0.100000,-0.100000)"
fill="#000000" stroke="none">
<path d="M518 1001 c-7 -2 -25 -18 -40 -35 -16 -17 -28 -28 -28 -24 0 4 -65
-57 -144 -135 -80 -78 -164 -160 -188 -182 l-43 -40 223 -3 223 -2 85 82 c47
46 142 139 212 208 70 68 132 123 137 121 6 -1 6 1 2 6 -8 8 -413 12 -439 4z"/>
<path d="M653 615 c-30 -27 -120 -114 -199 -191 -78 -78 -144 -141 -146 -140
-2 1 -13 -8 -25 -21 l-22 -23 226 0 226 0 54 55 c30 30 58 55 64 55 6 0 7 5 4
10 -3 6 -2 10 4 10 5 0 77 66 160 148 l150 147 -221 0 -220 0 -55 -50z"/>
</g>
</svg>
