<?xml version="1.0" standalone="no"?>
<!DOCTYPE svg PUBLIC "-//W3C//DTD SVG 20010904//EN"
 "http://www.w3.org/TR/2001/REC-SVG-20010904/DTD/svg10.dtd">
<svg version="1.0" xmlns="http://www.w3.org/2000/svg"
 width="524.000000pt" height="524.000000pt" viewBox="0 0 524.000000 524.000000"
 preserveAspectRatio="xMidYMid meet">
<metadata>
Created by potrace 1.14, written by Peter Selinger 2001-2017
</metadata>
<g transform="translate(0.000000,524.000000) scale(0.100000,-0.100000)"
fill="#000000" stroke="none">
<path d="M3627 3809 c-15 -4 -45 -10 -67 -13 -23 -3 -65 -17 -93 -32 -175 -87
-268 -225 -291 -432 -5 -45 18 -161 44 -219 20 -46 20 -46 1 -67 -23 -25 -51
-87 -51 -115 0 -23 17 -31 55 -24 l28 6 -22 -22 c-27 -27 -23 -50 16 -111 23
-34 84 -80 107 -80 3 0 16 19 29 41 17 27 23 51 20 70 -2 17 0 29 6 29 6 0 11
-3 12 -7 0 -5 2 -26 4 -47 4 -44 35 -77 67 -68 10 2 25 -1 34 -9 14 -11 34
-13 88 -10 31 2 38 107 10 128 -13 9 -14 16 -6 26 16 19 0 37 -49 52 l-44 14
39 0 c23 1 57 12 83 27 l43 25 -17 30 c-35 59 -59 73 -121 73 -31 -1 -50 1
-42 4 21 8 38 26 42 48 7 39 -138 62 -187 30 -26 -17 -26 -17 -42 21 -23 56
-31 164 -16 223 28 112 104 205 210 256 50 25 70 29 143 29 130 0 173 -14 257
-82 163 -132 184 -377 47 -540 -44 -54 -161 -122 -196 -115 -18 4 -26 -26 -17
-72 5 -27 11 -51 12 -53 2 -2 33 6 69 17 209 64 355 274 343 493 -12 222 -147
391 -370 461 -58 18 -140 25 -178 15z"/>
<path d="M1400 3798 c-77 -13 -187 -75 -254 -142 -159 -159 -191 -387 -85
-587 51 -95 146 -183 243 -223 63 -26 66 -24 66 48 l0 64 -54 31 c-144 81
-214 251 -171 416 72 274 420 362 621 157 20 -20 50 -65 66 -100 83 -174 19
-376 -150 -475 l-57 -33 -1 -62 c-1 -69 0 -70 65 -47 160 56 291 237 307 423
22 246 -158 485 -398 528 -60 10 -145 11 -198 2z"/>
<path d="M2476 3799 c-173 -42 -322 -192 -369 -371 -18 -70 -15 -198 7 -258
25 -68 24 -86 -3 -95 -28 -9 -71 -55 -71 -76 0 -19 24 -62 100 -182 32 -52 46
-67 59 -61 42 17 49 15 70 -19 23 -38 42 -50 66 -41 25 10 28 43 5 81 -26 44
-23 52 26 78 30 16 38 17 42 6 2 -7 17 -27 32 -44 26 -30 30 -31 54 -18 32 17
32 29 4 77 l-22 37 28 24 28 23 -28 48 c-68 116 -116 183 -139 194 -20 9 -32
6 -74 -16 l-50 -26 -15 48 c-20 65 -14 174 13 244 31 80 105 159 189 200 62
31 74 33 167 33 90 0 106 -3 157 -28 101 -51 169 -129 203 -236 25 -77 16
-188 -20 -270 -54 -119 -195 -216 -321 -220 -19 -1 -21 -6 -19 -56 1 -30 4
-58 8 -62 12 -11 164 27 218 55 117 61 215 182 250 310 74 265 -74 531 -340
612 -64 19 -194 24 -255 9z"/>
<path d="M1434 3051 c-11 -2 -21 -7 -24 -11 -7 -12 -4 -329 3 -337 5 -5 101
-7 165 -4 9 1 12 43 12 175 l0 174 -69 4 c-38 2 -77 1 -87 -1z"/>
<path d="M520 2543 c-266 -68 -351 -395 -149 -577 70 -64 140 -91 239 -91 75
0 93 4 153 32 37 18 67 38 68 45 6 72 2 251 -5 256 -12 7 -227 4 -234 -3 -13
-13 15 -17 113 -17 l106 0 -3 -115 -3 -115 -45 -24 c-127 -66 -291 -37 -390
69 -47 50 -67 88 -79 154 -27 141 45 277 179 342 46 22 69 26 141 26 77 0 92
-3 149 -33 74 -38 108 -29 38 11 -88 51 -183 64 -278 40z"/>
<path d="M1066 2531 c-3 -6 0 -623 3 -648 1 -10 46 -13 187 -13 144 0 185 3
181 13 -3 9 -45 12 -163 13 -87 1 -165 2 -171 3 -10 1 -13 37 -13 146 l0 145
155 0 c123 0 155 3 155 13 0 11 -32 14 -152 14 l-153 -1 -3 147 -3 147 171 2
c103 2 171 7 173 13 2 11 -362 16 -367 6z"/>
<path d="M1736 2520 c-56 -29 -85 -58 -96 -100 -11 -41 -8 -66 14 -108 26 -50
70 -71 236 -112 104 -25 155 -57 168 -104 43 -156 -171 -257 -359 -169 -37 17
-70 36 -73 42 -9 14 -36 14 -36 1 0 -16 90 -69 145 -85 102 -30 183 -21 269
29 95 55 115 184 39 251 -27 24 -58 35 -235 86 -44 12 -91 33 -110 49 -29 25
-33 33 -33 78 0 42 5 56 29 81 70 73 211 75 304 4 35 -26 54 -24 36 5 -39 61
-219 93 -298 52z"/>
<path d="M2205 2532 c-15 -16 20 -22 118 -22 l112 0 0 -312 c0 -199 4 -315 10
-318 7 -3 11 105 13 313 l2 317 58 1 c125 1 162 4 162 14 0 10 -465 16 -475 7z"/>
<path d="M2876 2530 c-11 -26 -2 -656 9 -650 6 3 10 119 11 315 0 291 -5 373
-20 335z"/>
<path d="M3182 2524 c-22 -15 -22 -16 -22 -318 0 -281 1 -304 18 -319 16 -14
45 -17 190 -17 163 0 172 1 192 22 22 24 19 54 -7 75 -10 8 -59 12 -145 12
-71 0 -133 2 -136 6 -4 3 -7 123 -7 265 0 155 -4 263 -10 269 -20 18 -51 21
-73 5z"/>
<path d="M3695 2524 c-18 -13 -19 -27 -18 -227 0 -200 2 -215 23 -261 51 -106
153 -168 269 -162 105 7 188 63 236 162 21 44 23 61 24 253 2 220 -1 237 -47
246 -14 2 -30 -3 -41 -14 -17 -17 -18 -38 -19 -213 0 -220 -6 -247 -70 -296
-50 -38 -141 -39 -195 -2 -65 44 -71 69 -73 293 -2 164 -4 201 -17 215 -20 22
-47 24 -72 6z"/>
<path d="M4390 2512 c-19 -23 -16 -46 7 -72 3 -3 79 -7 170 -10 l165 -5 -175
-240 c-97 -131 -178 -247 -180 -256 -3 -10 4 -27 15 -38 18 -20 29 -21 241
-21 164 0 227 3 239 13 22 17 28 53 13 74 -12 16 -32 18 -175 20 -89 1 -164 4
-166 6 -2 2 35 55 82 118 47 63 92 123 99 134 8 11 45 61 82 110 88 119 94
132 81 161 -6 13 -16 25 -22 26 -6 0 -111 2 -234 3 l-223 2 -19 -25z"/>
<path d="M1282 1738 c-7 -7 -12 -16 -12 -21 0 -5 7 -1 16 8 9 9 14 18 12 20
-2 3 -10 -1 -16 -7z"/>
<path d="M390 1680 c0 -5 5 -10 11 -10 5 0 7 5 4 10 -3 6 -8 10 -11 10 -2 0
-4 -4 -4 -10z"/>
<path d="M2610 1680 c0 -5 5 -10 11 -10 5 0 7 5 4 10 -3 6 -8 10 -11 10 -2 0
-4 -4 -4 -10z"/>
<path d="M420 1676 c0 -3 9 -10 20 -16 11 -6 20 -8 20 -6 0 3 -9 10 -20 16
-11 6 -20 8 -20 6z"/>
<path d="M516 1671 c-3 -4 6 -6 19 -3 14 2 25 6 25 8 0 8 -39 4 -44 -5z"/>
<path d="M583 1673 c9 -2 25 -2 35 0 9 3 1 5 -18 5 -19 0 -27 -2 -17 -5z"/>
<path d="M726 1665 c-11 -8 -16 -15 -10 -15 5 0 18 7 28 15 11 8 16 15 10 15
-5 0 -18 -7 -28 -15z"/>
<path d="M778 1673 c6 -2 18 -2 25 0 6 3 1 5 -13 5 -14 0 -19 -2 -12 -5z"/>
<path d="M942 1673 c9 -2 18 -12 20 -21 3 -13 5 -12 10 6 5 19 2 22 -20 21
-16 -1 -20 -3 -10 -6z"/>
<path d="M998 1673 c7 -3 16 -2 19 1 4 3 -2 6 -13 5 -11 0 -14 -3 -6 -6z"/>
<path d="M1095 1671 c-3 -5 -2 -12 3 -15 5 -3 9 1 9 9 0 17 -3 19 -12 6z"/>
<path d="M1223 1660 c-46 -27 -41 -34 5 -8 46 27 48 28 36 28 -5 0 -24 -9 -41
-20z"/>
<path d="M1325 1669 c11 -6 30 -23 42 -38 13 -14 23 -21 23 -14 0 14 -57 63
-73 63 -7 0 -3 -5 8 -11z"/>
<path d="M1451 1653 c0 -15 3 -22 6 -14 4 11 12 7 32 -15 29 -33 19 -14 -16
29 l-23 29 1 -29z"/>
<path d="M2090 1676 c0 -2 18 -6 40 -8 22 -2 40 0 40 4 0 5 -18 8 -40 8 -22 0
-40 -2 -40 -4z"/>
<path d="M2218 1673 c6 -2 18 -2 25 0 6 3 1 5 -13 5 -14 0 -19 -2 -12 -5z"/>
<path d="M2303 1673 c9 -2 25 -2 35 0 9 3 1 5 -18 5 -19 0 -27 -2 -17 -5z"/>
<path d="M2398 1673 c7 -3 16 -2 19 1 4 3 -2 6 -13 5 -11 0 -14 -3 -6 -6z"/>
<path d="M2536 1671 c-4 -5 3 -7 14 -4 23 6 26 13 6 13 -8 0 -17 -4 -20 -9z"/>
<path d="M2723 1665 c-3 -9 -3 -19 1 -22 3 -4 6 1 6 10 0 8 8 18 18 20 16 4
16 5 -1 6 -10 0 -20 -6 -24 -14z"/>
<path d="M2798 1673 c24 -3 38 -13 53 -36 10 -18 19 -27 19 -21 0 6 -9 23 -21
38 -15 19 -29 26 -52 24 l-32 -1 33 -4z"/>
<path d="M2986 1665 c-3 -9 -2 -14 3 -11 4 3 14 -13 21 -35 8 -22 17 -42 21
-45 8 -5 -24 92 -33 101 -3 3 -8 -1 -12 -10z"/>
<path d="M3121 1664 c0 -11 3 -14 6 -6 3 7 2 16 -1 19 -3 4 -6 -2 -5 -13z"/>
<path d="M3372 1565 c3 -111 4 -120 23 -122 15 -1 16 -1 3 3 -15 5 -17 20 -17
116 0 61 -3 113 -6 116 -3 3 -4 -48 -3 -113z"/>
<path d="M3428 1673 c12 -2 30 -2 40 0 9 3 -1 5 -23 4 -22 0 -30 -2 -17 -4z"/>
<path d="M3623 1673 c9 -2 25 -2 35 0 9 3 1 5 -18 5 -19 0 -27 -2 -17 -5z"/>
<path d="M3854 1646 c-19 -19 -34 -40 -34 -47 0 -8 9 0 20 18 10 17 32 39 47
47 15 8 22 15 15 16 -8 0 -29 -15 -48 -34z"/>
<path d="M3970 1676 c0 -3 9 -10 20 -16 11 -6 20 -8 20 -6 0 3 -9 10 -20 16
-11 6 -20 8 -20 6z"/>
<path d="M4150 1663 c0 -10 4 -14 8 -8 4 6 11 13 16 18 5 4 2 7 -7 7 -10 0
-17 -8 -17 -17z"/>
<path d="M4228 1673 c12 -2 30 -2 40 0 9 3 -1 5 -23 4 -22 0 -30 -2 -17 -4z"/>
<path d="M4323 1657 c-2 -15 0 -18 6 -8 7 11 11 10 19 -5 6 -10 13 -16 16 -13
3 3 -4 15 -17 27 l-23 22 -1 -23z"/>
<path d="M4558 1673 c6 -2 18 -2 25 0 6 3 1 5 -13 5 -14 0 -19 -2 -12 -5z"/>
<path d="M4630 1671 c0 -5 9 -7 20 -4 11 3 20 7 20 9 0 2 -9 4 -20 4 -11 0
-20 -4 -20 -9z"/>
<path d="M4778 1673 c7 -3 16 -2 19 1 4 3 -2 6 -13 5 -11 0 -14 -3 -6 -6z"/>
<path d="M4823 1673 c9 -2 25 -2 35 0 9 3 1 5 -18 5 -19 0 -27 -2 -17 -5z"/>
<path d="M300 1659 c0 -5 5 -7 10 -4 6 3 10 8 10 11 0 2 -4 4 -10 4 -5 0 -10
-5 -10 -11z"/>
<path d="M820 1660 c0 -5 5 -10 11 -10 5 0 7 5 4 10 -3 6 -8 10 -11 10 -2 0
-4 -4 -4 -10z"/>
<path d="M1616 1655 c-9 -26 -7 -32 5 -12 6 10 9 21 6 23 -2 3 -7 -2 -11 -11z"/>
<path d="M1852 1558 l2 -113 3 109 4 108 57 -79 c68 -94 98 -133 104 -133 2 0
4 15 5 33 1 28 1 29 -6 7 -6 -23 -10 -20 -62 50 -30 41 -63 87 -73 103 -10 15
-22 27 -27 27 -5 0 -8 -51 -7 -112z"/>
<path d="M2022 1645 c0 -16 2 -22 5 -12 2 9 2 23 0 30 -3 6 -5 -1 -5 -18z"/>
<path d="M2640 1666 c0 -2 7 -7 16 -10 8 -3 12 -2 9 4 -6 10 -25 14 -25 6z"/>
<path d="M4492 1650 c0 -14 2 -19 5 -12 2 6 2 18 0 25 -3 6 -5 1 -5 -13z"/>
<path d="M2491 1634 c-12 -15 -21 -32 -21 -38 0 -6 6 -2 12 9 6 11 18 28 26
38 8 9 12 17 9 17 -3 0 -15 -12 -26 -26z"/>
<path d="M3551 1644 c0 -11 3 -14 6 -6 3 7 2 16 -1 19 -3 4 -6 -2 -5 -13z"/>
<path d="M4065 1651 c-3 -5 -2 -12 3 -15 5 -3 9 1 9 9 0 17 -3 19 -12 6z"/>
<path d="M4765 1651 c-3 -5 -2 -12 3 -15 5 -3 9 1 9 9 0 17 -3 19 -12 6z"/>
<path d="M270 1630 c-6 -11 -7 -20 -2 -20 6 0 12 9 15 20 3 11 3 20 1 20 -2 0
-8 -9 -14 -20z"/>
<path d="M1770 1640 c0 -5 5 -10 11 -10 5 0 7 5 4 10 -3 6 -8 10 -11 10 -2 0
-4 -4 -4 -10z"/>
<path d="M2157 1635 c-4 -8 -3 -16 1 -19 4 -3 9 4 9 15 2 23 -3 25 -10 4z"/>
<path d="M3740 1641 c0 -6 4 -13 10 -16 6 -3 7 1 4 9 -7 18 -14 21 -14 7z"/>
<path d="M701 1629 c-1 -8 6 -24 15 -35 15 -19 15 -19 6 1 -5 11 -12 27 -15
35 -5 13 -6 13 -6 -1z"/>
<path d="M1102 1610 c0 -14 2 -19 5 -12 2 6 2 18 0 25 -3 6 -5 1 -5 -13z"/>
<path d="M2291 1614 c0 -11 3 -14 6 -6 3 7 2 16 -1 19 -3 4 -6 -2 -5 -13z"/>
<path d="M2721 1614 c0 -11 3 -14 6 -6 3 7 2 16 -1 19 -3 4 -6 -2 -5 -13z"/>
<path d="M514 1595 c0 -13 3 -22 7 -19 8 4 6 30 -2 38 -3 3 -5 -5 -5 -19z"/>
<path d="M1452 1595 c0 -16 2 -22 5 -12 2 9 2 23 0 30 -3 6 -5 -1 -5 -18z"/>
<path d="M2965 1609 c-4 -6 -5 -12 -2 -15 2 -3 7 2 10 11 7 17 1 20 -8 4z"/>
<path d="M3550 1605 c0 -8 4 -15 10 -15 5 0 7 7 4 15 -4 8 -8 15 -10 15 -2 0
-4 -7 -4 -15z"/>
<path d="M4146 1607 c3 -10 9 -15 12 -12 3 3 0 11 -7 18 -10 9 -11 8 -5 -6z"/>
<path d="M4360 1616 c0 -2 7 -7 16 -10 8 -3 12 -2 9 4 -6 10 -25 14 -25 6z"/>
<path d="M4492 1595 c0 -16 2 -22 5 -12 2 9 2 23 0 30 -3 6 -5 -1 -5 -18z"/>
<path d="M4766 1607 c3 -10 9 -15 12 -12 3 3 0 11 -7 18 -10 9 -11 8 -5 -6z"/>
<path d="M2021 1594 c0 -11 3 -14 6 -6 3 7 2 16 -1 19 -3 4 -6 -2 -5 -13z"/>
<path d="M3123 1565 c0 -27 2 -38 4 -22 2 15 2 37 0 50 -2 12 -4 0 -4 -28z"/>
<path d="M3740 1601 c0 -6 4 -13 10 -16 6 -3 7 1 4 9 -7 18 -14 21 -14 7z"/>
<path d="M1393 1582 c2 -12 6 -24 10 -28 3 -4 4 4 2 16 -6 30 -16 40 -12 12z"/>
<path d="M2159 1598 c-5 -17 -4 -48 3 -48 4 0 7 11 6 25 -2 21 -6 31 -9 23z"/>
<path d="M2837 1574 c-11 -15 -24 -21 -35 -18 -13 5 -14 4 -3 -4 18 -13 33 -7
49 19 19 29 11 32 -11 3z"/>
<path d="M251 1574 c0 -11 3 -14 6 -6 3 7 2 16 -1 19 -3 4 -6 -2 -5 -13z"/>
<path d="M1170 1563 c0 -16 4 -34 8 -40 5 -7 8 4 7 27 0 22 -3 40 -7 40 -5 0
-8 -12 -8 -27z"/>
<path d="M1610 1579 c0 -5 5 -7 10 -4 6 3 10 8 10 11 0 2 -4 4 -10 4 -5 0 -10
-5 -10 -11z"/>
<path d="M1773 1575 c0 -8 4 -12 9 -9 5 3 6 10 3 15 -9 13 -12 11 -12 -6z"/>
<path d="M2293 1572 c0 -10 7 -19 14 -19 17 0 16 5 -1 23 -13 12 -15 12 -13
-4z"/>
<path d="M2722 1560 c0 -19 2 -27 5 -17 2 9 2 25 0 35 -3 9 -5 1 -5 -18z"/>
<path d="M4063 1575 c0 -8 4 -12 9 -9 5 3 6 10 3 15 -9 13 -12 11 -12 -6z"/>
<path d="M4390 1580 c0 -5 3 -10 8 -10 4 0 18 -18 32 -40 14 -22 28 -40 32
-40 5 0 -8 23 -28 50 -37 51 -44 58 -44 40z"/>
<path d="M4632 1560 c0 -19 2 -27 5 -17 2 9 2 25 0 35 -3 9 -5 1 -5 -18z"/>
<path d="M748 1573 c7 -3 16 -2 19 1 4 3 -2 6 -13 5 -11 0 -14 -3 -6 -6z"/>
<path d="M1097 1559 c4 -13 8 -18 11 -10 2 7 -1 18 -6 23 -8 8 -9 4 -5 -13z"/>
<path d="M1557 1526 c21 -30 40 -52 42 -50 4 4 -68 104 -75 104 -3 0 12 -24
33 -54z"/>
<path d="M2947 1561 c-4 -17 -3 -21 5 -13 5 5 8 16 6 23 -3 8 -7 3 -11 -10z"/>
<path d="M3811 1564 c0 -11 3 -14 6 -6 3 7 2 16 -1 19 -3 4 -6 -2 -5 -13z"/>
<path d="M4148 1553 c5 -21 7 -23 10 -9 2 10 0 22 -6 28 -6 6 -7 0 -4 -19z"/>
<path d="M4763 1566 c0 -11 33 -16 39 -5 2 2 1 3 -1 2 -2 -1 -11 2 -21 7 -12
6 -17 5 -17 -4z"/>
<path d="M416 1558 c3 -5 10 -6 15 -3 13 9 11 12 -6 12 -8 0 -12 -4 -9 -9z"/>
<path d="M520 1560 c-9 -6 -10 -10 -3 -10 6 0 15 5 18 10 8 12 4 12 -15 0z"/>
<path d="M556 1558 c3 -5 10 -6 15 -3 13 9 11 12 -6 12 -8 0 -12 -4 -9 -9z"/>
<path d="M810 1562 c0 -5 11 -14 25 -20 14 -6 25 -10 25 -8 0 2 -11 11 -25 20
-14 9 -25 13 -25 8z"/>
<path d="M965 1560 c-3 -5 -1 -10 4 -10 6 0 11 5 11 10 0 6 -2 10 -4 10 -3 0
-8 -4 -11 -10z"/>
<path d="M2021 1554 c0 -11 3 -14 6 -6 3 7 2 16 -1 19 -3 4 -6 -2 -5 -13z"/>
<path d="M2659 1522 c2 -35 -1 -49 -15 -59 -10 -7 -13 -13 -8 -13 21 0 34 26
34 66 0 24 -3 45 -7 47 -5 3 -6 -16 -4 -41z"/>
<path d="M3426 1558 c3 -5 10 -6 15 -3 13 9 11 12 -6 12 -8 0 -12 -4 -9 -9z"/>
<path d="M3576 1558 c3 -5 10 -6 15 -3 13 9 11 12 -6 12 -8 0 -12 -4 -9 -9z"/>
<path d="M3741 1554 c0 -11 3 -14 6 -6 3 7 2 16 -1 19 -3 4 -6 -2 -5 -13z"/>
<path d="M4236 1558 c3 -5 10 -6 15 -3 13 9 11 12 -6 12 -8 0 -12 -4 -9 -9z"/>
<path d="M2746 1548 c3 -4 11 -5 19 -1 21 7 19 12 -4 10 -11 0 -18 -5 -15 -9z"/>
<path d="M4492 1535 c0 -16 2 -22 5 -12 2 9 2 23 0 30 -3 6 -5 -1 -5 -18z"/>
<path d="M257 1529 c4 -13 8 -18 11 -10 2 7 -1 18 -6 23 -8 8 -9 4 -5 -13z"/>
<path d="M1615 1540 c-3 -5 -1 -10 4 -10 6 0 11 5 11 10 0 6 -2 10 -4 10 -3 0
-8 -4 -11 -10z"/>
<path d="M1773 1529 c-2 -23 3 -25 10 -4 4 8 3 16 -1 19 -4 3 -9 -4 -9 -15z"/>
<path d="M2470 1539 c0 -21 36 -66 63 -80 14 -6 12 -2 -7 12 -15 12 -34 36
-42 53 -7 17 -13 24 -14 15z"/>
<path d="M4063 1529 c-2 -23 3 -25 10 -4 4 8 3 16 -1 19 -4 3 -9 -4 -9 -15z"/>
<path d="M1390 1526 c0 -23 -35 -59 -71 -73 -33 -13 -33 -13 -4 -8 32 6 85 56
85 80 0 8 -2 15 -5 15 -3 0 -5 -6 -5 -14z"/>
<path d="M1451 1524 c0 -11 3 -14 6 -6 3 7 2 16 -1 19 -3 4 -6 -2 -5 -13z"/>
<path d="M2291 1524 c0 -11 3 -14 6 -6 3 7 2 16 -1 19 -3 4 -6 -2 -5 -13z"/>
<path d="M2842 1518 c7 -15 15 -23 17 -17 2 6 -4 18 -13 27 -15 15 -15 15 -4
-10z"/>
<path d="M3551 1524 c0 -11 3 -14 6 -6 3 7 2 16 -1 19 -3 4 -6 -2 -5 -13z"/>
<path d="M3816 1527 c3 -10 9 -15 12 -12 3 3 0 11 -7 18 -10 9 -11 8 -5 -6z"/>
<path d="M4769 1538 c-5 -18 -6 -38 -1 -34 7 8 12 36 6 36 -2 0 -4 -1 -5 -2z"/>
<path d="M451 1514 c0 -11 3 -14 6 -6 3 7 2 16 -1 19 -3 4 -6 -2 -5 -13z"/>
<path d="M1101 1514 c0 -11 3 -14 6 -6 3 7 2 16 -1 19 -3 4 -6 -2 -5 -13z"/>
<path d="M2924 1494 c-8 -20 -13 -38 -10 -41 3 -3 8 6 12 21 4 17 13 26 28 27
17 1 17 2 3 6 -9 2 -15 9 -12 14 4 5 3 9 0 9 -3 0 -13 -16 -21 -36z"/>
<path d="M3050 1522 c0 -8 -5 -10 -12 -6 -7 4 -3 -3 10 -15 12 -12 22 -27 22
-33 0 -6 2 -9 5 -6 3 3 -1 20 -9 39 -9 19 -15 28 -16 21z"/>
<path d="M3745 1519 c-4 -6 -5 -12 -2 -15 2 -3 7 2 10 11 7 17 1 20 -8 4z"/>
<path d="M2156 1505 c4 -8 8 -15 10 -15 2 0 4 7 4 15 0 8 -4 15 -10 15 -5 0
-7 -7 -4 -15z"/>
<path d="M2988 1508 c5 -5 16 -8 23 -6 8 3 3 7 -10 11 -17 4 -21 3 -13 -5z"/>
<path d="M4151 1504 c0 -11 3 -14 6 -6 3 7 2 16 -1 19 -3 4 -6 -2 -5 -13z"/>
<path d="M4633 1485 c0 -22 2 -30 4 -17 2 12 2 30 0 40 -3 9 -5 -1 -4 -23z"/>
<path d="M3123 1475 c0 -22 2 -30 4 -17 2 12 2 30 0 40 -3 9 -5 -1 -4 -23z"/>
<path d="M4320 1505 c0 -5 5 -17 10 -25 5 -8 10 -10 10 -5 0 6 -5 17 -10 25
-5 8 -10 11 -10 5z"/>
<path d="M841 1477 c-13 -21 -12 -21 5 -5 10 10 16 20 13 22 -3 3 -11 -5 -18
-17z"/>
<path d="M1190 1494 c1 -16 72 -64 84 -57 7 5 3 9 -9 11 -11 2 -32 16 -47 30
-16 14 -28 22 -28 16z"/>
<path d="M1452 1475 c0 -16 2 -22 5 -12 2 9 2 23 0 30 -3 6 -5 -1 -5 -18z"/>
<path d="M2292 1475 c0 -16 2 -22 5 -12 2 9 2 23 0 30 -3 6 -5 -1 -5 -18z"/>
<path d="M3550 1485 c0 -8 2 -15 4 -15 2 0 6 7 10 15 3 8 1 15 -4 15 -6 0 -10
-7 -10 -15z"/>
<path d="M4064 1489 c-3 -6 -2 -15 3 -20 5 -5 9 -1 9 11 0 23 -2 24 -12 9z"/>
<path d="M4491 1487 c-1 -12 -5 -16 -13 -11 -8 5 -7 0 2 -11 14 -16 15 -17 18
-1 2 9 1 22 -1 29 -3 7 -6 4 -6 -6z"/>
<path d="M444 1481 c3 -5 -11 -16 -32 -24 -20 -9 -31 -16 -24 -16 22 -1 73 29
67 39 -4 6 -8 10 -11 10 -3 0 -3 -4 0 -9z"/>
<path d="M514 1471 c2 -14 9 -27 17 -29 11 -3 12 -2 1 6 -8 5 -13 12 -12 16 1
4 -1 12 -4 19 -2 6 -3 1 -2 -12z"/>
<path d="M1101 1474 c0 -11 3 -14 6 -6 3 7 2 16 -1 19 -3 4 -6 -2 -5 -13z"/>
<path d="M1610 1466 c0 -31 6 -34 13 -6 3 11 1 23 -4 26 -5 3 -9 -6 -9 -20z"/>
<path d="M1773 1470 c1 -21 10 -18 13 5 1 8 -2 15 -6 15 -5 0 -8 -9 -7 -20z"/>
<path d="M3745 1480 c-3 -5 -1 -10 4 -10 6 0 11 5 11 10 0 6 -2 10 -4 10 -3 0
-8 -4 -11 -10z"/>
<path d="M4767 1483 c-3 -5 -1 -17 4 -28 6 -17 7 -16 6 8 -1 28 -3 32 -10 20z"/>
<path d="M304 1466 c11 -9 24 -16 30 -16 12 0 7 5 -24 19 -24 11 -24 11 -6 -3z"/>
<path d="M704 1466 c11 -9 24 -16 30 -16 12 0 7 5 -24 19 -24 11 -24 11 -6 -3z"/>
<path d="M2850 1471 c0 -6 4 -13 10 -16 6 -3 7 1 4 9 -7 18 -14 21 -14 7z"/>
<path d="M3866 1465 c10 -8 23 -15 28 -15 6 0 1 7 -10 15 -10 8 -23 15 -28 15
-6 0 -1 -7 10 -15z"/>
<path d="M4150 1466 c0 -8 4 -17 9 -20 5 -4 7 3 4 14 -6 23 -13 26 -13 6z"/>
<path d="M2156 1453 c-6 -14 -5 -15 5 -6 7 7 10 15 7 18 -3 3 -9 -2 -12 -12z"/>
<path d="M800 1450 c-9 -6 -10 -10 -3 -10 6 0 15 5 18 10 8 12 4 12 -15 0z"/>
<path d="M3955 1450 c-16 -7 -17 -9 -3 -9 9 -1 20 4 23 9 7 11 7 11 -20 0z"/>
<path d="M563 1443 c9 -2 25 -2 35 0 9 3 1 5 -18 5 -19 0 -27 -2 -17 -5z"/>
<path d="M628 1443 c7 -3 16 -2 19 1 4 3 -2 6 -13 5 -11 0 -14 -3 -6 -6z"/>
<path d="M758 1443 c7 -3 16 -2 19 1 4 3 -2 6 -13 5 -11 0 -14 -3 -6 -6z"/>
<path d="M2318 1443 c6 -2 18 -2 25 0 6 3 1 5 -13 5 -14 0 -19 -2 -12 -5z"/>
<path d="M2368 1443 c6 -2 18 -2 25 0 6 3 1 5 -13 5 -14 0 -19 -2 -12 -5z"/>
<path d="M2588 1443 c6 -2 18 -2 25 0 6 3 1 5 -13 5 -14 0 -19 -2 -12 -5z"/>
<path d="M3148 1443 c7 -3 16 -2 19 1 4 3 -2 6 -13 5 -11 0 -14 -3 -6 -6z"/>
<path d="M3188 1443 c7 -3 16 -2 19 1 4 3 -2 6 -13 5 -11 0 -14 -3 -6 -6z"/>
<path d="M3228 1443 c7 -3 16 -2 19 1 4 3 -2 6 -13 5 -11 0 -14 -3 -6 -6z"/>
<path d="M3428 1443 c7 -3 16 -2 19 1 4 3 -2 6 -13 5 -11 0 -14 -3 -6 -6z"/>
<path d="M3468 1443 c6 -2 18 -2 25 0 6 3 1 5 -13 5 -14 0 -19 -2 -12 -5z"/>
<path d="M4193 1443 c9 -2 23 -2 30 0 6 3 -1 5 -18 5 -16 0 -22 -2 -12 -5z"/>
<path d="M4248 1443 c6 -2 18 -2 25 0 6 3 1 5 -13 5 -14 0 -19 -2 -12 -5z"/>
<path d="M4803 1443 c9 -2 25 -2 35 0 9 3 1 5 -18 5 -19 0 -27 -2 -17 -5z"/>
<path d="M4868 1443 c6 -2 18 -2 25 0 6 3 1 5 -13 5 -14 0 -19 -2 -12 -5z"/>
</g>
</svg>
